<?xml version="1.0" encoding="UTF-8"?>
<svg version="1.1" viewBox="0 0 900 900" xmlns="http://www.w3.org/2000/svg">
 <g transform="translate(0 -152.36)">
  <path d="m403.36 966.89c-6.4644-1.9314-4.8094-10.703-6.1642-15.904-1.071-11.657-3.0168-23.286-7.0366-34.316-2.1414-5.9124-0.49745-16.071-7.7799-18.342-6.3144 0.4189-10.729 5.9722-17.022 6.1119-5.8028 0.53944-13.265 0.65709-16.187-5.5198-3.4711-5.5424 4.151-9.5935 6.3612-12.579-3.9211-6.7437-3.3891-15.098-6.7313-22.136-2.7284-6.2118-5.1278-13.244-10.531-17.653-6.5854 1.5367-8.581 11.285-8.7714 17.41 0.47977 6.4135-6.2337 10.005-11.874 8.494-7.7684-0.70971-6.669-9.8303-7.0431-15.463-0.11871-11.237 1.8549-22.551 6.7159-32.737 2.2797-6.6342 6.6661-13.578 4.2762-20.801-1.1224-12.841 1.8176-25.666 4.6623-38.115 1.7207-7.1836 4.2192-14.188 8.0164-20.534 5.4236-15.146 2.3032-31.473 0.56543-46.987-1.4053-17.912-1.908-36.183 1.5917-53.891 0.74767-3.6585 6.0996-11.892-1.636-8.9133-6.3739-0.44616-10.097-7.118-15.997-9.1915-8.7732-7.1279-18.192-13.369-27.419-19.876-7.5939-6.446-15.94-11.881-24.263-17.301-8.904-8.7688-1.9299-35.749-3.1683-50.239 1.1104-12.779-0.60767-25.692 1.3414-38.4 0.73681-18.414 1.5349-36.827 2.3662-55.237-45.141-0.28282-90.281 0.1553-135.42 0.16266-22.827-0.40495-45.659-0.53626-68.488-0.7853-5.1084-3.7186-10.124-7.6358-15.656-10.672-8.9666-7.5641-19.02-13.733-28.053-21.233-5.9805-3.6825-12.217-7.2601-16.916-12.685-4.9328-3.6483-4.0061-12.897 2.9887-12.907 19.916-1.424 39.92-0.88026 59.876-1.1539 78.129-0.23289 156.26-0.53168 234.39-0.29369 52.551-0.076 105.1 0.0635 157.65-0.24774 4.1341-0.33859 16.44 0.77863 12.135-6.5581-2.0663-4.2846 1.058-11.755-5.9409-11.719-5.0392-4.0042-0.56424-9.6516 4.4128-9.8774 2.0189-6.6124-7.7588-9.8978-6.5437-16.443 1.6075-21.783 1.9086-43.66 2.1359-65.497-0.36387-7.1906-0.2553-14.642 3.2059-21.162 3.1831-5.1758-2.3091-14.022 4.9902-16.57 7.85-1.6388 7.9598 8.2466 5.7908 13.225-1.5167 6.2611 11.338 7.6334 11.309 1.2946 2.409-6.5689 10.224-2.4052 8.2631 3.5212 1.1686 9.5307 8.4931 18.672 18.371 19.933 11.333 2.256 23.087 3.6559 34.597 2.1139 4.4509-2.7437 11.829 0.0781 13.574-6.3475 1.413-3.0809 6.5922-0.43501 7.5851-2.3711-0.15011-6.8667-1.1498-13.777-0.31458-20.617 3.074-7.7257 7.0604-0.47176 7.1225 4.9778 0.0591 5.1892-2.2168 13.946 3.6654 16.136 4.9622 1.6995 9.08 5.6946 14.487 2.1085 5.833 0.17054 11.789-0.1128 17.652-0.84589 12.132-1.8424 24.465-1.9052 36.592 0.0119 6.7071 2.7515 9.2471-4.9958 11.936-9.4411 3.4994-6.4845 9.569-11.42 16.852-12.935 6.9639-2.5942 13.05 3.9509 17.58 8.3762 8.2062 10.587 8.686 24.64 10.181 37.403 0.63573 20.503 0.74292 41.039 0.18877 61.545-1.6364 13.084-1.576 26.324-2.2609 39.488 20.395 3.1616 41.194 1.1698 61.65 3.6463 5.5324 1.7571 11.017 3.8163 16.727 5.0735 13.347 4.0363 26.338 9.1439 39.699 13.142 12.393 4.7829 26.675 7.4127 37.466 12.573 8.4434 3.2215 16.799 6.7412 25.407 9.4501 5.3641 2.8079 14.25 4.8082 13.378 12.631 1.1511 7.531-8.0153 7.0283-12.949 7.3558-5.7658 2.5511-7.3374 10.429-13.815 12.088-5.1516 4.4379-2.2827 12.725-3.4345 18.834-0.22943 17.652-1.0638 35.387 0.66864 52.983-0.67701 6.0006-2.8176 11.875-2.3099 18.096 0.1319 16.091-1.3117 32.237 0.23869 48.286 3.5539 6.7329-1.5769 12.953-8.8294 11.197-25.304 0.99661-50.662 0.97492-75.934 2.5069-7.8279-0.80513-12.3-8.2454-18.525-12.17-7.5248-5.3297-14.892-11.131-23.249-15.087-7.0185 0.12827-0.59549 10.564-2.2092 15.049-0.34527 6.0668 2.8179 11.524 2.9985 17.562 1.9059 18.801 3.1002 37.828 1.4366 56.69-1.1473 9.0013-2.3763 18.21-6.2701 26.49-2.8448 11.055-6.1838 22.233-5.6762 33.77 0.0939 13.22 1.1074 26.477 4.0238 39.392 2.6958 18.684 0.30828 37.534-1.6196 56.158-1.2177 12.442-0.47607 25.051 2.8141 37.139 1.9647 9.4239 3.9663 18.861 6.4605 28.146 0.9452 9.9709 1.546 20.113 0.43977 30.083-1.9032 6.6425-10.241 6.7605-15.92 7.097-4.8104 0.14057-13.422 0.69305-12.406-6.5367 1.1029-9.768 0.19919-19.602-1.9088-29.181-1.6011-9.8526-3.2237-20.038-8.8842-28.515-4.401-7.145-10.498-13.804-18.725-16.364-6.4596-1.8096-2.656-7.3886 2.5725-5.0711 11.095 3.2834 19.345 12.786 24.733 22.643 5.5275 12.982 8.1214 27.07 9.6014 41.049 0.32303 4.6124 0.32173 9.2395 0.47535 13.859 3.6212-0.0269 8.7369 2.048 10.761-2.1089 2.5812-7.8286 1.3685-16.395 0.30508-24.412-2.6845-10.547-5.1403-21.157-7.4435-31.8-2.725-10.783-1.8213-22.075-1.5826-33.088 0.62936-10.79 2.4288-21.491 2.2584-32.333 3e-3 -10.631 0.48347-21.372-1.1194-31.911-4.106-15.892-4.5578-32.604-3.0307-48.886 1.0774-12.678 8.1301-23.835 9.4764-36.462 1.3298-8.1224 2.3067-16.424 4.1196-24.389-2.307-6.6787-1.5655-14.001-2.0212-20.976-0.0773-10.634-1.1903-21.215-2.8569-31.701-1.547-20.479-1.6746-41.202 1.565-61.532 0.52444-7.5073 2.1266-14.933 5.6422-21.641 1.1277-5.0292 7.159-9.1598 3.3673-14.759-2.4234-3.4263-7.4622-1.9661-10.384-3.4616-2.1564 6.2308-3.8683-0.47058-4.6625-3.2575-5.709-5.4669-7.9509 6.6646-4.5104 7.5286 6.8885-2.0542 12.668 5.0066 8.6379 11.416-2.4336 6.1491-4.6492 12.394-5.3409 19.035-2.3123 14.253-2.7459 28.713-2.434 43.123 0.46183 7.0302-6.535 1.4632-5.0066-2.833 0.91721-6.4149-1.4663-13.276-8.1123-15.416-3.6241 3.5977-0.3746 11.614 2.8749 15.404 6.4347 11.889 10.152 25.181 12.128 38.511 0.2809 6.8419 0.65643 13.686 1.8548 20.437 0.35147 14.269-0.5354 28.69-3.5257 42.666-3.0461 10.015-5.5561 20.63-11.781 29.237-4.8994 5.449-10.992 10.32-13.047 17.702-1.5058 6.1874-5.2113 11.374-10.68 14.62-4.1246 3.3807-7.954 7.0966-11.89 10.69 0.6538 5.337 0.94932 10.741 2.0009 16.012 5.1796-2.5147 4.6688-9.4959 8.7472-13.606 4.1105-4.3373 6.0904-13.753 14.097-9.8935 5.4126 3.5691 10.107 8.8734 12.403 15.006 4.129 14.192 5.421 29.169 3.3599 43.829-1.4719 10.435-3.3427 22.142-11.448 29.637-4.8976 5.6472-10.655 0.92427-15.378-1.9105-4.4743-3.3827-5.6775-9.6576-7.6126-14.713-4.413-13.57-2.1207-27.966-3.4665-41.893-3.659-2.0512-4.9777 8.107-6.4923 11.385-2.1384 5.7077-4.1566 13.202-10.687 15.198-6.9212 1.2369-12.679-4.4274-15.013-10.444-6.1092-12.821-6.2411-27.66-2.6166-41.196 2.1842-3.919-7.5377-14.08-8.2572-6.4808-3.0722 15.492 0.23354 31.787-5.1291 46.937-3.0421 10.865-10.128 20.231-12.248 31.363-1.2086 3.8021-0.70703 16.551 5.0145 10.27 2.089-6.024 1.9806-12.524 3.3857-18.647 2.3008-6.5617 7.6876-11.833 8.5014-18.946 4.3958-6.126 7.4938 7.3661 12.938 7.7081 3.8678 4.241 10.045 6.1156 15.863 4.5355 3.9268-2.2343 5.6844 0.98415 1.1379 2.4056-4.9801 4.6805-11.168 1.3138-15.981-1.6369-4.7022-1.6802-9.8254-11.024-13.959-3.7552-3.1481 2.891-4.3247 10.907 2.1485 7.0347 5.24-3.4878 11.1 2.2589 15.954 4.0435 5.2096 5.6186 7.6538 13.141 9.1631 20.485 6.5346 4.2162 6.4615-7.2013 3.2706-10.652-0.86421-3.0998-8.2196-11.855-2.0724-11.274 2.9573 1.2375 7.4885 13.056 9.2224 6.3684-2.6345-4.8194-1.7856-10.733-1.7674-16.049-1.5457-5.587 6.4066-9.8699 4.5571-1.7259-3.5855 4.114 1.0919 10.053 0.79114 15.505 1.2269 7.1486 5.4848 13.209 10.269 18.451 4.4277 7.8188-10.117 6.3937-8.8962 14.523-0.94333 6.9909 9.0874 11.269 4.7903 18.93-3.0759 5.0526-10.285 2.35-15.272 3.3194-12.79 0.43525-25.817-0.18186-38.275 3.2578-24.519 2.0517-49.138 2.82-73.646 5.1012-24.293 1.6802-48.588 3.3246-72.833 5.609-12.126 0.91599-24.247 2.0288-36.399 2.5096-5.3024-2.9432-10.905-4.983-17.217-3.8316-6.3955 0.36261-12.844 0.42099-19.179 1.4168 2.6392 12.287 8.6592 23.81 9.6546 36.504 0.50363 9.2473 0.7004 18.825-1.8741 27.795-2.1936 6.7401-10.146 5.2567-15.453 4.2354zm5.629-8.878c4.1218-4.5313 3.0709-11.448 3.0755-17.152-0.5177-11.537-3.9214-22.633-7.588-33.492-2.4107-6.333-1.9699-13.44-4.8535-19.571-3.0399-1.2601-0.17491 12.649-4.7636 5.2901-3.0893-4.9809-3.5892-10.773-6.0034-16.042-2.8235-6.3944-2.3378-13.656 3.5773-18.162 4.0024-6.2674 7.268 1.1141 4.3087 5.1562-1.5383 6.7871-2.1101 14.925 2.0763 20.85 4.687-3.454-2.6133-9.4046 1.3978-14.037 1.7194-9.8183 3.0885-19.714 4.511-29.572 0.79083-23.185 0.18109-46.427-1.392-69.569-1.8397-13.741-0.88577-27.659 1.4447-41.274-0.26353-6.2974 1.7722-12.288 3.6921-18.225 3.7612-12.233 1.9779-25.238 2.3904-37.826-0.27219-11.267 0.8732-23.057-3.9196-33.618-0.28231-3.1751-5.4965-11.805-7.4554-5.853 2.6003 5.6026 3.7814 11.71 4.0842 17.883 0.87189 14.224 2.6329 28.512 0.63523 42.731-1.57 12.312-2.8097 25.106-8.7617 36.227-2.8221 7.6169-8.6887 13.909-15.283 18.49-7.3406 4.4321-15.943-0.72199-21.232-6.06-4.8744-3.8937-5.7214-9.9724-7.5462-15.489-2.5411-5.0616-4.052-10.349-3.8032-16.02-2.0999-15.26-2.9326-30.749-2.2091-46.136 2.6464-5.8698 2.049-12.71 3.0936-19.033-0.28981-4.0711 2.9361-10.362 0.19737-13.154-5.672 3.2245-5.5108 10.85-6.7947 16.5-2.5167 19.746-2.1472 39.994 2.4269 59.421 2.4612 10.74-0.96195 21.56-3.3664 31.983-3.7822 12.76-10.23 24.733-11.993 38.071-1.8325 9.9474-1.5258 20.118-0.18048 30.096-0.39849 7.4875-5.4918 13.671-7.4496 20.772-3.4363 9.8196-4.2079 20.551-2.7454 30.812 3.5133 2.4372 3.076-8.9318 4.9153-12.011 1.8153-7.1511 9.7078-11.218 16.655-9.9323 6.3542 4.4596 9.7533 11.956 13.2 18.697 3.1688 5.6208 2.0414 12.451 5.3076 18.062 1.5024 4.9882 5.5576 2.9786 4.0618-1.5394-1.7475-11.617-3.8508-24.15-11.996-33.196-3.356-3.1042-7.3838-9.1126-0.53765-10.502 5.7333-3.7794 7.5304-10.87 11.693-15.735 2.4894 7.0389 1.4306 14.949 3.2514 22.228 1.5633 8.0667 4.0854 16.153 9.1785 22.726 6.9524 11.832 13.375 24.024 17.735 37.077 2.3528 6.2798 4.5305 12.643 5.6447 19.254 4.7675 11.975 7.218 25.045 5.9095 37.927-0.70106 3.2354 3.0954 4.9079 5.411 2.9489zm-29.64-103.91c-9.0743-8.0196-11.507-20.876-12.52-32.392-0.74033-14.5 1.3018-29.999 9.5598-42.275 3.4143-6.581 13.167-7.3999 16.536-0.30996 6.9967 10.127 5.7037 22.933 6.2486 34.584 0.14391 12.964-1.0947 26.897-8.8558 37.748-2.4299 3.4078-7.334 5.8736-10.968 2.6448zm8.202-10.545c7.0225-17.48 7.6343-37.305 2.8335-55.434-1.9649-8.6844-10.907-2.4731-11.45 3.6062-5.0681 13.458-5.1897 28.379-1.5743 42.214 1.9526 4.247 1.2205 14.109 6.9988 13.952 1.5369-1.0145 2.4756-2.6917 3.192-4.3374zm-61.653-7.6925c-2.6959-5.1759 3.8504-7.1168 3.1151-12.297 2.3064-1.6899 3.7948-8.3267 6.1617-2.2648 1.8875 4.9557 4.2338 11.521-2.4619 13.564-1.3003 3.2153-5.0112 4.869-6.8149 0.99794zm15.41-14.869c-6.918-5.1454-9.77-14.178-8.9885-22.55 0.38456-7.4087-0.059-15.092 1.9125-22.274 3.0926-4.5981 3.9726-10.453 7.6874-14.766 3.0521-4.6194 9.9032-10.524 15.117-5.3614 6.7265 8.1509 6.054 19.651 5.3743 29.572-1.4539 11.802-3.5653 24.199-10.352 34.229-2.4654 4.2714-7.2446 3.5322-10.751 1.15zm8.3142-7.9858c4.5298-7.2737 4.6096-16.242 6.016-24.471 0.56531-7.7938 2.1048-16.167-0.8386-23.642-4.9816-2.9779-9.9634 4.5602-11.13 9.039-3.6458 11.686-5.9955 24.398-3.1934 36.511 0.8333 4.9076 5.9777 7.5764 9.146 2.5623zm18.612-46.225c-1.8458-2.6801-6.2803-8.1642-0.3331-8.8354 6.7932-1.2411 12.605 5.5406 6.2052 10.721-2.0213 2.0604-5.2254 0.75695-5.8721-1.8852zm19.354-6.5564c-0.61801-1.6872-3.5786-3.6791-2.677-5.1686 3.518-2.7017 6.5515-6.7013 10.859-7.9016 0.59592 5.5435-1.0669 11.247-2.8988 16.465-1.3852 2.6671-4.3742-2.4437-5.2833-3.3948zm-44.453-11.932c-2.5045-5.6369 7.5003-15.393 8.274-5.7024-0.33635 3.3086-5.0881 10.434-8.274 5.7024zm23.807 146.7c0.91799-8.6205-10.926-0.19525-4.3158 2.8773 2.1024 0.66157 4.7984-0.21358 4.3158-2.8773zm120.12-3.2512c11.856-0.70778 23.651-2.0922 35.416-3.6675 18.359 0.25892 36.689-1.5299 54.978-2.972 6.2663-0.0954 12.226-2.9066 18.489-2.3643 9.6422 1.101 19.442-0.29099 29.031-1.4767 4.4336 0.15214 8.4273-4.4547 2.3424-5.4187-2.7973-5.0538 6.9453-5.064 8.7819-9.4033 3.868-4.3941 9.0508-7.6928 15.068-7.7044 3.0344 0.27437 12.733-2.8298 4.9105-4.1004-11.748-1.5156-23.79-0.25616-35.378-3.2328-10.684-2.9426-21.396-7.0365-30.251-13.831-2.9176-5.2399-8.6813-7.4464-12.689-11.663-2.1384-3.7768-10.447-10.12-9.7368-1.5138 1.9726 7.5808-8.4565 5.565-12.998 6.2213-7.1077 0.21689-13.999 2.162-21.147 1.7201-6.6829 0.22939-13.878-0.61385-20.078 2.3536-3.6019 5.427 7.6093 2.5687 10.491 3.0242 16.498-0.79382 32.995-1.7707 49.398-3.7357 7.6831-0.76974 12.355 6.4759 18.299 10.01 4.5345 1.4966 7.2514 6.3082 2.2963 9.3703 0.91179 4.359 6.5913-0.57324 6.507-3.4522 5.7494-2.9858 5.9806 6.4492 11.707 4.2712 4.1295 2.0292 9.2848 1.2002 11.02 6.3605 3.0335-1.6372 10.505-2.3956 7.4178 3.2521-5.7374 1.992-6.8247 8.2481-8.6982 12.962-8.2763 2.1948-17.052 1.3621-25.546 1.9433-10.598 0.35792-21.255 0.69191-31.68 2.726-11.585 0.63967-23.223 0.5747-34.769 1.9631-14.131 1.3644-28.363 1.6052-42.397 3.8868-11.29 1.1852-22.642 1.5225-33.973 2.0987-4.3218-4.6881-8.6854-9.8421-15.167-11.463-5.461-3.1444-12.271-0.52199-17.227-4.0693-2.2794-1.5658-7.0028-5.1029-1.4484-5.6759 3.6668-4.6638 6.0341-10.589 4.1083-16.922-4.2986-7.8192 5.303-9.3532 10.913-9.356 14.45-1.2304 28.992-0.88328 43.438-1.987 7.2826-2.8268-3.9944-6.998-7.4852-4.1669-17.444 1.0493-34.925 1.5582-52.374 2.61-1.6539 0.49821-5.4253-0.56267-5.6561 0.98345 2.3912 8.6793 4.1296 19.727-3.1332 26.625-4.5514 3.3244-4.731 13.984 3.096 10.245 8.8882 1.192 17.957 4.3582 24.451 10.765 5.4072 2.8225 8.5329 9.1488 15.422 7.1346 11.42-0.72902 22.832-1.5975 34.252-2.3489zm-105.47-1.7095c0.59114-6.0268-10.303-8.3502-11.671-2.4323 1.0488 5.2133 8.2072 4.0383 11.671 2.4323zm43.239-3.1702c-3.053-3.2178-11.226-4.0255-15.908-2.2362-1.127 5.35 9.4642 2.8961 13.079 3.1556 0.93543-0.20475 2.1088-0.18139 2.829-0.91935zm34.267-4.4683c-3.2932-5.729-6.5178 2.9323-0.79595 2.2501 0.6537-0.53895 0.7854-1.4614 0.79595-2.2501zm9.9619-1.1717c-2.9059-5.1582-8.0891 2.1613-1.7154 1.8678 1.2775 0.13638 3.7607-0.18075 1.7154-1.8678zm11.83 0.62262c-0.86579-3.8661-7.569 1.6376-1.8065 1.147 0.69292-0.18691 1.3951-0.53175 1.8065-1.147zm21.506-1.4787c-5.0613-6.9811-3.5983 5.9327 0 0zm8.3794-1.0118c-6.0047-4.5691-1.7537 4.9225 0 0zm19.751-1.8678c-1.532-4.0642-7.0552-0.29684-2.1978 1.6602 1.286 0.72185 2.9748-0.10598 2.1978-1.6602zm-78.818-0.66643c8.2818-4.8699-11.528-5.1258-3.8616 0.75522 1.2213 1.1221 2.7199-0.31233 3.8616-0.75522zm69.851-2.4467c0.92646-6.5303 16.276-1.0299 9.0063-9.4824-4.7135-0.91026-8.8265-8.4784-12.874-6.9913 0.0738 4.0007 12.867 7.5989 4.2639 10.523-6.7494-3.8098-5.1588 13.665-1.2276 7.6346l0.40694-0.77476zm17.856 2.4905c-4.3726-4.643-0.20476 4.9213 0 0zm11.83 0.13322c-4.6729-6.6555-4.9398 4.6046 0 0zm127.01-0.6569c-1.0295-5.5552-15.19-1.8444-9.0816 1.5574 2.7302-0.0625 7.5869 1.3074 9.0816-1.5574zm-214.47-1.7327c-0.18855-5.6285-10.2 0.1817-3.1168 1.7547 1.3718 0.51247 2.7767-0.43577 3.1168-1.7547zm29.689-3.9929c-2.1596-4.6759 2.6093-5.8277 6.033-6.4631-2.603-0.99893-5.543-3.6055-8.5662-3.0784-1.1899 5.1064-10.613-3.3126-7.2776 3.2598 6.1815 1.5314 4.286 9.9247 9.4308 11.671 1.0128-1.5424 0.5303-3.6692 0.37997-5.3897zm74.885 4.6927c-1.9303-3.4876-7.0947-1.9773-2.0531 0.93258 0.90461 0.88381 2.8376 0.78994 2.0531-0.93258zm-90.592-2.1831c-1.9595-3.0585-12.709-1.4249-5.5564 1.4044 1.7892 0.53438 4.5858 0.47307 5.5564-1.4044zm99.619 1.2492c-3.6206-5.1774-1.3991 4.491 0 0zm11.207 0.19299c-0.1957-3.3737-8.0722-6.7887-4.8115-1.2065 0.73481 1.6005 3.7836 3.5081 4.8115 1.2065zm68.799-0.85381c8.0238 2.0536 8.9725-12.8 0.4942-9.9052-6.3646 0.79102-12.971 1.9971-18.55 5.284-7.1933 6.3778 6.3512 6.2418 10.264 5.4338 2.6036-0.20445 5.2001-0.49055 7.7916-0.81255zm-152.23-0.0436c1.2351-5.1266-10.55-7.8996-6.9672-2.0571 1.5612 1.125 5.337 4.1397 6.9672 2.0571zm94.638-0.38828c-0.0332-5.3298-12.007-3.392-4.6561-0.0167 1.0857 0.57844 4.2607 2.1485 4.6561 0.0167zm13.698-2.6868c-3.0816-4.3667-12.059 2.6257-4.1784 2.9545 1.5896-0.38668 3.7882-1.1381 4.1784-2.9545zm-241.33-3.0355c-1.0102-4.7025-5.9826-3.0445-3.22 1.1044 0.76473 5.8284 5.8278 4.3149 3.22-1.1044zm140.2 1.591c-1.689-4.8623-7.4116-2.9051-3.1812 1.2153 1.6677 1.8801 6.4863 2.6148 3.1812-1.2153zm30.152-0.3796c-2.4959-3.1655-9.2321-1.7682-3.1908 0.87128 1.0459 0.91059 5.5919 2.1117 3.1908-0.87128zm9.456 0.43371c0.35639-5.0765-8.4822-6.4219-5.269 0.0354 0.99925 1.9666 4.183 1.7155 5.269-0.0354zm-82.925-2.9271c-1.5878-7.3342-13.969-5.9809-5.4572 0.51813 1.5718 1.5359 5.6958 3.3626 5.4572-0.51813zm90.902 0.62549c-2.6387-6.1959-8.4486 1.5163-1.9535 2.4416 2.203 0.4733 3.4189-0.40899 1.9535-2.4416zm112.07 0.69611c-0.51457-6.3134-6.4604 1.1084-1.1271 1.7399 0.79888-0.12835 1.1568-1.0205 1.1271-1.7399zm-226.63-0.73522c-1.3153-4.5376-8.2702-0.94247-2.1047 0.93954 0.75107 0.55951 2.3494 0.34179 2.1047-0.93954zm11.207-0.34553c0.8068-4.7097-7.9389-7.8764-4.7338-1.4388 0.38147 1.763 4.4713 5.0453 4.7338 1.4388zm123.28 0.1421c-3.5679-6.8813-10.019-1.7473-15.637-3.0534-0.0385 5.9058 11.044 4.1803 15.487 3.3097zm-102.12-0.29c0.0771-4.9657-6.7412-10.128-6.0044-2.1761 0.18076 2.2671 4.6403 3.8528 6.0044 2.1761zm112.24-1.9679c-1.9704-4.2857-11.002-1.6898-4.9118 1.6283 1.0769 0.72124 8.5836 1.664 7.0498 0.15283-0.71266-0.59371-1.4253-1.1874-2.138-1.7811zm11.438 0.46731c1.5943-5.6502-10.711-4.727-5.2883 0.33962 1.623 0.62903 3.8282 0.7329 5.2883-0.33962zm10.803-1.8044c-0.90128-3.309 7.1943-1.1059 1.5347-3.3958-4.3577-1.7936-11.21 1.834-4.5242 5.0421 1.6777 1.6144 3.4074 0.61296 2.9895-1.6464zm-182.43-1.112c-6.0047-4.5692-1.7537 4.9225 0 0zm85.299-0.53871c-0.74442-4.371-9.6793-3.4538-4.183 0.6332 1.2231 1.3086 4.0421 1.8538 4.183-0.6332zm-11.19-1.32c-3.6957-4.036-5.2454 3.8757 0.17633 1.7814 1.2975 0.039 0.12577-1.6141-0.17633-1.7814zm26.022-1.3999c-4.903-4.5154 0.11782 7.0488 0.583 0.84547zm13.796 2.3201c-0.81457-6.3804-14.378-7.1419-5.2732-1.0236 1.291 0.35751 4.6404 3.2697 5.2732 1.0236zm7.4905-2.6493c-0.33266-3.9929-7.5908-4.7345-3.9592-0.0231 0.81192 1.2489 3.408 1.7032 3.9592 0.0231zm23.395-1.0516c5.4274-0.27415 2.8375-4.5717-1.263-3.0806-3.2002-0.3275-11.771 0.36838-6.8876 4.73 2.719 0.13679 5.3804-1.4968 8.1506-1.6494zm99.261-1.0725c-0.40713-5.169-12.876-2.678-5.3155 1.2861 1.8405 1.6925 5.727 2.4861 5.3155-1.2861zm-237.75 0.0771c-6.6173-4.336 0.27255 5.0953 1.1947 0.95737l-0.50136-0.42148zm14.229 0.69311c-0.82662-5.5759-12.251-1.3808-4.239 0.83132 1.2286 0.25289 3.7907 0.89293 4.239-0.83132zm9.9619 0.0894c-1.0713-4.588-9.6032-0.66744-3.3918 1.0074 1.0231 0.0669 3.0416 0.33038 3.3918-1.0074zm18.679-1.4175c-1.9929-5.325-8.1082 0.15758-1.7944 1.2843 0.75365 9e-3 1.7575-0.40444 1.7944-1.2843zm77.438 0.43368c-6.1508-1.2233 1.2213 2.5904 0 0zm33.269-0.87384c2.404-3.9612-10.526-3.9652-4.1927 0.59909 1.31 1.7286 3.1717 0.96033 4.1927-0.59909zm-101.99-1.3886c-2.0263-5.4057-9.9134 2.0895-2.2829 1.8678 1.0522 0.0264 2.2748-0.70645 2.2829-1.8678zm7.4714-1.2452c-3.1057-5.2238-6.5802 1.474-0.66848 1.7205 0.51008-0.40748 0.657-1.1046 0.66848-1.7205zm11.207-1.8679c-1.7496-3.6578-7.6311-4.2808-10.449-7.8499-2.6458 2.6092 4.7855 9.9189 8.9845 10.231 1.1232-0.11827 1.5252-1.4485 1.4647-2.3815zm7.4714 0c-1.6352-2.6829-5.7315-0.47866-1.1099 0.85428 0.62299 0.91373 1.4988-0.23911 1.1099-0.85428zm38.296-0.31131c-4.1568-2.8293-7.6819-8.4553-12.654-9.2444-1.9058 1.8466-1.8842 5.476-2.622 8.1412 4.1513 5.1548 4.1645-4.1284 4.8885-4.2021 3.1487 2.5275 5.978 6.7073 10.276 6.6761l0.2471-0.50968zm10.268-0.15884c0.24241-6.2352-11.083-4.2027-4.9168 0.4857 1.2571 0.27148 5.2894 2.4491 4.9168-0.4857zm-121.36-1.9375c-2.2794-2.673-6.3073-0.61245-1.7291 1.188 1.1674 1.0283 3.3839 0.83553 1.7291-1.188zm89.606 1.1624c-6.3165-4.9996-3.4309 4.5181 0 0zm-100.86-1.2452c-4.3726-4.643-0.20476 4.9213 0 0zm20.769-0.62262c-2.535-4.3347-5.9468 4.5726-0.49893 1.0058l0.40914-0.48838 0.0898-0.51745zm10.984 0.58354c-1.9929-5.325-8.1082 0.15757-1.7944 1.2843 0.75365 9e-3 1.7575-0.40444 1.7944-1.2843zm110.83-0.61225c0.61001-3.1899 10.078 5.2316 9.3235-1.357-5.2841-1.5794-11.182-2.0793-16.609-1.0568-0.76244 2.9604 6.5292 6.5976 7.2856 2.4138zm80.161 0.66504c1.7233-0.43243 5.7239 1.2254 4.6801-1.747-0.33209-6.2429-0.99471-12.934-5.638-17.635-3.419-5.1523-11.623-2.4998-14.629 1.8271-2.8762 4.7404-7.0561 12.427-1.7399 16.975 5.3237 2.9923 11.604 0.0566 17.327 0.57939zm-174.67-2.873c-4.9509-2.9797-0.1 5.8843 0.5071 0.63406l-0.50707-0.63406zm200.31 1.3028c0.40494-3.7815-5.8472-9.8155-4.4-2.4397-0.28844 1.9869 3.9615 6.5033 4.4 2.4397zm-172.37-1.0168c2.1835-4.9627-8.1942-0.22883-1.9054 1.2769l1.0186-0.32982 0.88685-0.94711zm9.2881-2.4076c-3.6206-5.1774-1.3991 4.491 0 0zm97.512-6.1672c1.9099-11.937 9.6687-21.752 13.261-33.146 5.6624-14.281 2.614-29.876 5.376-44.677 0.71246-4.9748 0.93864-10.027 0.17372-15.006-2.9026 5.982-6.2081 11.876-7.4269 18.476-6.3358 16.217-15.884 30.879-23.992 46.219-5.0816 4.8734-3.3553 12.622-8.4615 17.631-5.0852 6.7275 4.9596 9.0695 9.2863 11.746 3.7895 1.5911 11.48 9.5601 11.436 1.2137l0.18272-1.1946zm93.223 0.83435c4.6237-5.5696 4.8973-13.379 6.0914-20.238 1.3356-13.703 2.2179-27.877-1.2304-41.342-1.8958-4.9989-7.2114-12.367-13.282-9.9395-6.9795 1.2994-5.8166 8.507-6.5289 13.883-1.5812 16.772-5.0733 34.526 1.467 50.704 3.1149 3.3407 2.5201 14.826 8.942 9.9342 1.5933-0.87247 3.1146-1.8776 4.5412-3.0022zm-347.3-1.8273c0.57493-4.7717-4.5793-4.5913-3.2963 0.12689 0.62612 3.0534 5.2864 6.1537 3.4284 0.7606zm145.67 3.0151c8.5225-1.3384-4.1238-5.4513-7.4774-5.2556-4.8939-1.825-9.8533-0.4651-12.742 3.8618-3.2028 2.2059 0.62093 1.744 2.5762 1.9914 5.9487 0.9214 11.731-0.31828 17.643-0.59767zm75.457-0.88407c-1.0968-1.8264-7.5332 0.27256-9.7704 1.1015 2.3349 1.7636 7.5786 0.73423 9.7704-1.1015zm-118.76-11.26c30.802-2.1116 61.707-2.6164 92.466-5.3184 5.9892 0.46816 9.8807-2.9384 13.121-7.1304 5.485-3.4386 13.285 5.5443 16.758-1.3962 6.4746-15.813 11.526-32.185 17.893-48.04 4.3304-9.6628 9.6019-18.989 12.783-29.116-1.7027-6.9442-12.645-5.561-18.244-8.4457-6.6629-2.2991-14.087-3.6842-19.648-8.2257-3.9322-7.687 7.9974-2.1394 11.276-1.1442 6.3284 1.6305 12.025 5.3342 18.249 6.8164 4.0514-0.68492 10.274 5.6024 12.53 2.0706-4.8197-4.5848-11.625-6.3466-17.559-9.1083-13.53-4.7678-26.766-10.304-39.826-16.241-9.9936-4.0911-19.441-9.6278-29.764-12.833-3.8802-1.6408-14.457-5.5689-10.645-10.495 9.0085-4.7418 19.07-7.0586 28.471-10.924 8.0197-2.8196 15.707-6.4346 22.91-10.94 11.323-6.3362 24.159-9.4876 35.061-16.628 3.2654-2.978 12.285-2.1527 11.361-7.7946-8.9549 1.6888-17.255 5.9217-25.912 8.7438-16.699 6.2297-33.732 11.585-50.06 18.767-10.435 4.3272-21.547 7.0937-31.603 12.266-5.6436 4.8296-14.095 3.3639-19.866-0.44764-6.8909-2.4381-13.961-4.4542-20.538-7.7514-11.941-5.2083-24.74-8.2092-36.361-14.199-6.0141-2.7736-12.349-4.8708-18.927-5.7433 4.0312 5.244 10.049 8.2364 16.136 10.472 16.313 7.1444 31.763 16.164 48.254 22.894 7.6223 0.44188 6.4521 9.7514-0.51593 10.19-5.798 2.213-11.263 6.1673-17.665 5.9979-5.4279 2.4529-10.655 6.0008-14.303 10.748 3.3262 6.2788 10.332-2.2178 15.357-2.3719 5.3881-4.5174 12.453-4.5392 18.297-7.5979 6.2506-2.6745 12.792-4.5685 19.216-6.77 16.342 4.6322 32.41 10.223 47.919 17.17 6.0362 2.0077 12.283 2.9188 17.93 6.1029 3.7724 0.31323 11.625 6.6299 4.1647 7.2795-11.899-1.9974-22.664-8.0067-34.26-11.174-11.358-3.7512-22.623-7.7743-33.921-11.701-10.172 3.5275-20.469 6.6913-30.743 9.8712-9.2101 4.1721-18.765 7.472-28.249 10.94-7.0579 0.87533-13.076 5.0647-19.805 7.1312-5.9317 1.3038-11.38 5.4372-9.7734 12.189-1.6449 5.7055-3.0896 11.519-2.4845 17.631 0.36245 14.315 2.7664 28.494 2.8837 42.831 0.43626 11.259 0.27331 22.534 0.74628 33.791 12.451 0.0592 24.969-1.2334 37.443-1.803 3.149-0.1868 6.2982-0.37403 9.4471-0.56138zm127.21-8.2959c8.2139-13.595 13.485-28.856 22.979-41.686 2.9064-6.3586 5.3628-12.956 8.3988-19.281 3.0715-6.2659 4.1732-13.325 7.4594-19.463 2.3598-1.8751 4.4786-2.8189 1.7028-5.8025 2.0575-5.0748 6.9114-0.50048 5.7547 3.3982 3.4616 8.094 9.3554 15.812 18.055 18.57 6.3903 2.3706 13.909 4.6025 20.255 0.84162 8.074-3.3647 14.043-9.9709 18.414-17.355 8.1398-13.023 14.649-27.382 16.426-42.775 1.3385-10.308 3.1184-20.771 2.1305-31.173-4.2927-6.5237-12.548 1.0653-10.957 7.1808-0.40294 21.231-4.2323 43.181-15.628 61.436-4.2695 7.2357-11.994 12.821-20.687 12.264-7.5402 0.0319-13.802-4.72-18.758-9.9314-3.5692-2.6066-5.0176-6.8914-5.6015-11.086-1.591 2.5219-6.1609 7.4798-6.8327 1.7499 1.7423-10.298 7.3262-19.565 9.0334-29.866-1.2436-5.7555 0.42373-12.528 7.2633-13.396 4.0628-0.75306 14.211-0.91762 9.3661-7.3982-3.4452-4.7468-8.2703-11.548-3.7775-17.17 5.2002-4.4686 4.0924-11.765 0.91395-17.051-1.9316-7.3548-10.459-4.78-14.246-0.56774-1.8809 4.8653 7.6304 5.8068 6.8582 11.688 1.6929 8.8458 0.58982 18.396-3.1833 26.575-1.6816 5.4031-12.382 8.5996-5.8132 14.384 1.4861 5.3044-4.3243 7.0358-3.9752 12.414-3.5974 8.3412-7.661 16.489-10.839 25.018-4.6454 10.896-9.2584 21.841-14.858 32.288-3.379 5.3-3.2101 12.297-6.8302 17.679-1.5397 8.9306-6.4013 16.929-8.2559 25.78-3.5758 4.8578-5.5874 11.01-9.3428 15.192-2.4727 7.8626 3.6262-0.57624 4.5736-2.4574zm78.858-16.46c4.6034-10.181 6.9655-21.674 5.8457-32.838-1.1981-6.4813-10.023-4.7581-14.943-6.023-7.4169-1.7551-7.096 7.1075-7.2554 11.959-0.1872 9.1757-1.1364 19.252 3.8046 27.43 3.2232 5.5268 10.192 6.0685 12.548-0.52802zm-291.81-60.45c0.41781-4.2627 0.61668-12.533-2.4199-14.515-1.1955 5.243-1.2987 11.033 0.12665 16.225 0.92513 0.64188 2.0121-0.99876 2.2933-1.7107zm10.404-3.0929c-3.074-4.7962-3.1001 4.6905 0 0zm278.3-4.6696c-0.54552-6.743-2.1442-13.385-4.9604-19.526-0.5702-5.2765-1.8872-11.983-7.3058-14.232-0.41836 5.6655 3.0868 11.717 4.5688 17.425 2.3188 6.7793 4.0794 13.77 4.6236 20.914 3.3575 4.2827 3.6784-2.382 3.0738-4.5818zm-9.085-4.3648c-2.6175-7.9209-3.5901-16.523-7.6258-23.891-4.7979-0.62152-7.1719 9.0396-5.7838 13.393 2.2095 6.1676 5.0685 12.46 9.8107 17.083 5.0977 2.4319 4.7866-3.5653 3.5988-6.585zm-288.35-14.936c0.0287-13.966 0.35077-27.973 0.11146-41.914-3.4182-2.9884-9.1626-8.364-14.118-6.8214-2.9791 5.3801-1.4241 11.959-1.3567 17.851 1.5321 14.937 2.0272 30.679 9.0364 44.3 1.1425 2.5261 6.2896 10.59 5.8096 3.3515 0.36082-5.581 0.45686-11.176 0.51696-16.767zm21.787 15.057c3.7247 0.38264 6.9995-5.1294 1.4019-4.0568-2.876-0.24437-11.762 6.1588-4.8404 5.0412 1.154-0.30021 2.2959-0.64414 3.4385-0.98441zm290.46-0.52735c2.8087-11.308-3.099-22.266-2.9629-33.561-1.4536-5.5786 2.7179-15.405-3.4558-17.999-7.0427-3.9839-9.195 4.996-10.061 10.112 1.0189 6.2918 4.3749 11.986 5.9705 18.164 2.7645 7.9786 4.3495 16.406 7.9692 24.06 0.68885 1.9183 2.4164 0.58501 2.5398-0.77747zm-292.17-7.9917c5.9735-1.6396 10.511-5.6514 10.485-12.29 2.7931-6.5512-2.8773-11.885-7.203-15.971-5.9687-5.845-6.9544 4.1718-6.7738 8.4559-0.21862 6.6875-1.6731 13.46-0.70501 20.115 0.7683 1.9976 3.0359 0.24527 4.1973-0.30977zm-11.311-11.454c0.84282-10.883 0.21998-21.897 1.7646-32.705 3.7253-3.9305 9.7357 4.6802 13.654 6.5778 1.7681 2.1661 11.887 8.267 6.6922 2.1056-6.3804-6.432-13.336-12.281-20.778-17.448 0.58223-11.131 1.1966-22.268 1.8748-33.388-4.5067-4-3.248 8.1049-3.6715 11.215-0.69333 5.4743 0.83527 12.435-3.2204 16.626-6.193-1.0855-9.8829-8.0022-16.254-9.2366-0.78355 3.9033 8.6538 5.7552 11.166 9.5628 4.994 4.2759 4.3304 11.278 5.659 17.225 0.6798 12.778-1.2672 25.524-0.98005 38.28 1.9328 6.8338 4.0636-3.0675 4.0924-8.8149zm47.596 6.9979c3.9376-0.25309 9.5892-8.454 2.3438-6.0309-3.1875 1.2578-13.067 3.3773-9.306 7.7922 2.4336 0.1358 4.7278-0.95629 6.9621-1.7613zm193.84-2.0824c-4.1577-21.237-6.6266-43.169-3.9443-64.752 1.934-4.4589-1.7857-8.1411-5.2886-3.8322-12.532 8.4907-26.747 14.125-40.036 21.314-5.3345 2.6499-9.9532 6.5269-16.009 7.4747-6.4805 2.3302-13.259 4.4092-19.191 7.8247 7.2325 4.5032 15.623 7.0607 23.412 10.558 18.557 7.4538 36.996 15.222 54.983 23.969 2.7514 1.3782 8.0313 2.7602 6.0741-2.5554zm50.294 0.62261c-0.93248-3.9783-3.4618-9.2189-5.8139-11.518 1.6755 3.8673 1.9954 12.539 5.5677 13.057l0.19124-0.69291 0.055-0.84613zm17.49-0.56035c-0.97697-5.9879-3.5599 5.1486-0.12119 1.778l0.0909-0.76977 0.0303-1.0083zm-57.19-3.798c1.2721-7.0394 1.6779-14.734-0.99266-21.492-3.9091-4.952-7.2912-10.221-8.9964-16.302-2.662 3.9572 0.74377 11.376 0.6794 16.613 1.361 8.4365 1.6235 17.128 3.9776 25.355 2.5853 3.6352 4.9013-2.042 5.3321-4.1747zm86.413-1.2452c2.3154-10.622 6.9558-20.732 7.3076-31.736 1.0791-17.362 0.75681-34.84-0.84977-52.159-0.9268-9.102-4.0689-17.949-8.9169-25.68-1.79 4.4199 0.0679 10.87-0.59233 16.028 0.0645 12.07-1.0795 24.21 0.29522 36.232 1.6851 5.7606 5.9777 10.699 5.6792 17.081 0.79063 10.346-2.9488 20.285-3.7467 30.522 0.47658 3.7123-3.6999 10.597-0.66649 12.291 0.79527-0.64218 1.2112-1.628 1.4901-2.5807zm-276.27-0.28521c4.024-0.27751 4.6635-5.8645-0.042-3.811-3.238 0.99882-9.5533 7.76-2.1713 4.6831l1.0479-0.39842 1.1655-0.47364zm253.68-12.118c0.59317-4.561 4.1671-15.505-4.0829-13.271-1.632 5.5534-1.1001 11.61-0.99564 17.371-0.57515 4.231 2.6265 10.571 3.5446 3.1852 0.59923-2.4087 1.0926-4.8427 1.534-7.2849zm-261.28 5.8423c5.2247-2.3584 11.115-3.0553 15.528-6.9697 6.0014-1.718 11.834-4.1916 17.116-7.6735 4.5769-2.4001 13.468-8.0173 3.9294-10.154-7.9519-3.0512-15.297-7.3098-22.733-11.398-7.5877-3.7079-15.08-7.8044-23.101-10.478-3.4552 4.3813-0.83817 11.852-1.5178 17.365 0.18263 9.4838 0.14323 19.046-1.7025 28.38-0.9207 7.9391 9.0844 1.8483 12.48 0.92846zm229.75-4.9986c-2.5257-4.6497-4.7097-16.076-11.913-11.757-6.9297 2.5672 4.1528 6.4869 6.3148 8.6823 1.2319 0.93785 4.3484 5.312 5.5982 3.0744zm-24.28-16.25c5.4723-5.2741 7.4326-13.323 8.0614-20.689-0.2115-5.8224-1.3655-12.366-5.6262-16.615-4.627-2.5547-7.1642 2.2001-2.0984 4.4114 6.5318 3.1608 5.6958 11.022 4.5857 16.97-1.37 5.4919-2.8558 12.011-7.8934 15.272-2.5995 1.0294-11.006-7.6804-7.5335-1.1398 2.439 3.7125 7.0074 4.8109 10.504 1.7908zm-234.72-4.9403c-0.66892-9.7367-2.3834-19.378-3.697-29.039-0.90942-3.7838-8.5963-8.3749-10.844-6.3966-1.0394 6.8914-1.8036 13.841-2.6776 20.749 1.722 6.1317 7.9139 9.7325 11.955 14.35 1.9816 1.5486 5.6584 6.4569 5.2635 0.33669zm236.31-15.168c1.2008-2.9999 0.18665-11.195-3.6857-5.9112-1.1314 5.5809-1.3396 11.589 0.10432 17.132 2.9836 1.1909 3.0324-8.6814 3.5814-11.221zm54.091 3.1165c-5.2434-4.0927-12.435-2.7525-18.438-4.987-4.786-0.51499-14.764-6.7562-16.389 0.62755 0.50477 7.2586 10.561 3.4387 15.469 5.3442 6.919 1.3225 14.105 2.2585 20.565 5.15 1.9538-1.6688 0.20608-4.6747-1.2071-6.1348zm-180.45-0.25907c13.798-6.7781 29.219-9.5107 42.877-16.662 11.106-4.8421 22.772-8.1946 34.306-11.79 7.479-2.7688 14.194-7.433 22.003-9.2626 6.4544-2.1553 11.098-7.7303 12.472-14.322 2.8516-12.118 4.6542-24.467 7.335-36.628 2.2567-5.5118-0.84392-11.664-7.4889-9.6062-66.155 0.8831-132.32 0.83346-198.47 1.9825-1.2527 14.84-0.84671 29.81-0.85942 44.703-0.58558 5.4436 2.2466 11.105-0.56234 16.217-0.9604 5.285-14.773-0.39727-8.1715 6.223 8.0901 5.9451 18.581 6.6144 27.505 10.836 7.4896 2.9838 14.887 6.5614 22.728 8.3529 6.1604 4.0186 13.796 5.2051 20.588 7.9485 6.1271 1.7797 11.807 6.4107 18.534 4.5776 2.5203-0.46561 4.9491-1.3696 7.2093-2.5703zm112.62-3.1909c-1.3876-4.5399 5.8287-10.228 3.0467-13.014-2.8465 3.86-6.535 9.6076-5.2708 14.721 1.8523 4.2514 1.7585 5.2802 2.224-1.7068zm69.113-11.933c0.14151-3.8618 1.0384-10.899-2.7375-12.388-0.27715 4.003-4.986 4.886-0.61765 8.4718 1.3526 4.0139-2.618 12.228 1.8333 13.761 1.138-3.1194 1.1987-6.5658 1.5218-9.8441zm-14.274-3.1021c-0.18424-5.5418 1.6668-10.722 2.6358-16.074 0.88584-6.2712 1.8786-12.594 3.2993-18.718-1.8309-8.7831-5.6092-17.269-10.748-24.618-2.3622-4.0337-11.15-12.216-9.4904-2.3953-0.37122 11.014 1.8147 22.613-2.9997 32.988-1.225 5.3246-5.3224 11.399-2.0487 16.639 4.2881 5.6515 5.0459 12.874 6.3526 19.626 3.8979 0.0439 8.0886 1.5923 11.746-0.0122 1.4852-2.1259 0.98116-4.9923 1.253-7.4353zm23.215 6.6363c1.0849-10.782-0.32667-21.711-1.7085-32.42-2.167-8.8433-3.0876-18.165-7.107-26.434-5.717-8.1069-9.0713-18.427-17.591-24.231-5.0212-3.3178-11.22-5.7227-17.086-2.9558-9.8078 2.7948-18.778 10.089-21.859 20.043-6.6775 17.191-11.991 35.516-11.238 54.129 2.9623 3.9208 4.4458-5.4567 4.2545-8.04 2.0693-12.592 4.4203-25.244 8.5551-37.337 4.1029-8.918 10.224-17.816 19.273-22.213 8.9173-2.3403 17.562 3.7703 22.511 10.769 6.65 8.755 12.086 18.723 13.472 29.784 1.4918 10.068 3.2622 20.095 4.9338 30.127 1.1907 3.1707-2.6322 13.776 3.1771 9.6242zm-331.3-4.8434c0.14041-4.8229 3.4068-13.858-3.4451-15.265-6.4565-1.4531-12.366 7.8408-7.5238 12.84 2.9195 4.1109 10.623 14.044 10.969 2.4249zm21.338-14.146c-4.2674-4.3171-1.9237 3.4634 0.20056 0.4835zm248.49-0.65459c4.1943-1.3185 3.6064-10.287 7.5843-4.4246 6.5483-1.5239 6.9035-10.922 7.5855-16.594 1.6598-5.5729 3.3815-11.269 2.6715-17.179-1.135-4.0045 1.6975-13.552-2.6202-13.817-1.1112 6.1027 0.0169 12.535-1.3404 18.706-1.342 7.9876-2.2187 16.485-6.3457 23.592-6.2236-0.31997-11.335 4.0501-12.579 10.406-0.0251 2.9205 3.7868-0.47274 5.0443-0.69002zm46.829-4.6614c-1.6117 0.20127 0.19866 7.6418 0.26936 1.7297l-0.0739-0.96066-0.19555-0.769h8e-5zm-308.39-2.17c-2.1368-2.9416-14.43-0.4239-6.0093 1.147 1.9077 0.0382 4.6809 0.50714 6.0093-1.147zm23.363-0.71157c-3.5678-0.97116-14.832-1.2458-14.534 0.39713 4.7418 0.26667 10.043 0.81539 14.534-0.39713zm6.7717-0.78271c-2.9625-2.8523-5.3268 3.5599-0.11675 1.4242 1.1197 0.25194 0.76165-1.2914 0.11675-1.4242zm233.31-5.6572c3.0141-4.6033 6.26-9.0388 7.1279-14.642 1.6805-1.6953 3.1492-11.144-0.65448-7.1594-2.2659 6.48-5.1793 12.738-9.4675 18.157-2.1232 2.4586-5.8398 9.6867 0.58413 6.1391 0.99369-0.6116 1.8665-1.4489 2.41-2.4951zm-252.86 0.30344c8.9211-0.3247 17.848-0.45529 26.773-0.62333-0.16273-16.346 0.82682-32.666 1.5804-48.985 1.3316-5.9114-1.0134-12.818-8.2563-10.293-22.043 1.5781-44.211 0.7204-66.222 2.7429-3.1119 4.2583-1.6284 11.374-2.4755 16.821-0.38331 12.692-1.5635 25.404-0.92504 38.098 1.2052 6.4643 10.733 2.4314 15.56 3.4349 11.325-0.29254 22.645-0.75928 33.966-1.1956zm-43.354-5.2339c-0.22839-13.228 1.9812-26.402 2.3599-39.633-2.0154-8.1409 7.4352-6.1234 12.523-6.5411 14.225-0.0154 28.479-0.61509 42.594-2.2943 7.1093-1.0596 8.867 5.3613 6.8042 10.942-1.2257 11.107-0.43079 22.336-1.6337 33.428-1.8909 7.5367-10.263 1.4528-15.415 3.7464-15.502 0.61493-31.046 1.1584-46.552 0.51817zm19.595-5.3135c5.5043-2.3058 1.3706-9.648 1.3301-14.136-1.8763-6.0056-1.803-14.139 3.9564-18.004 6.2279-2.7273 15.794-1.4723 18.743 5.3555-0.82409 6.4936 3.9613 12.886 1.2779 18.97-2.7689 3.1388-3.4 9.3096 2.5016 7.4861 2.94-0.30861 5.8612-0.76997 8.7916-1.1563 0.59692-10.378 1.8726-20.738 1.8669-31.133-0.78364-4.9103-8.9728-7.0001-12.848-5.3647-6.4116 0.0777-13.026 0.58875-19.438 1.7584-5.2541 1.6624-11.374 0.36022-15.886 0.20871-2.3438 6.5354-1.8324 13.753-2.4935 20.61 0.26893 5.2528-1.6803 11.724 0.77249 16.17 3.7353 0.83238 7.8032 0.38237 11.425-0.76555zm9.439-8.7546c-3.074-4.7962-3.1001 4.6905 0 0zm11.959-2.1532c-2.4112 1.8448 1.3922 5.065 0 0zm-5.404 0.16363c2.0359-4.4177-4.497-4.285-2.5671 0.0756 0.50064 1.0592 2.0122 0.67539 2.5671-0.0756zm-1.2632-11.074c9.2351-0.38043 1.3359-11.454-4.5789-7.3091-6.8393 1.0818-7.5214 13.809 0.68025 8.1607 1.2835-0.35133 2.5853-0.63966 3.8986-0.85164zm-47.471 23.337c0.87028-15.146 2.0054-30.327 1.7233-45.505-0.14912-6.8549-8.0425-8.3905-12.388-12.052-11.985-7.6715-23.347-16.362-35.828-23.228-2.5654 4.7578 7.0177 8.5225 10.985 11.054 8.6871 4.6142 15.731 11.632 24.294 16.454 6.4194 3.0805 6.1942 10.724 5.4104 16.717-1.0544 8.7652-0.72323 17.636-1.6224 26.394-2.3082 7.2782-10.316-0.9868-14.115-2.9885-9.0168-6.7739-18.462-12.932-27.87-19.151-7.4229-2.9594-4.9925-11.962-5.3849-18.2 0.2979-11.088 1.8286-22.083 3.0895-33.088-2.4086-2.158-4.5724-4.6559-7.3276-6.3747-1.9435 8.5686-1.5976 17.569-2.1126 26.341-0.0418 8.8488-0.86666 17.782 0.23961 26.579 3.5845 4.515 9.4236 7.4127 14.053 11.102 5.4019 2.8349 10.319 6.4918 14.478 10.692 7.2893 3.1051 11.781 11.315 19.895 12.796 4.4298 1.48 7.4763 7.776 11.681 7.906 0.63487-1.7407 0.72026-3.6167 0.80156-5.4482zm443.59-3.0928c-2.2374-5.6422-1.3982-11.732 0.70545-16.928 0.53855-3.8984 0.41727-8.6339-3.566-6.2205 0.63449-5.1268 5.9892-8.6754 4.6735-14.777 0.0962-5.8357 1.4639-11.89-0.052-17.601-5.27-3.0768-2.5252-7.96-0.53105-11.615-3.1725-8.4413-11.291 1.6904-7.583 6.9389 0.2025 6.5368-1.6896 12.953-1.6337 19.52-0.30753 11.054-1.1874 22.273 0.71311 33.223 0.33661 3.6097 3.7773 10.612 7.6107 8.2449l-0.33705-0.78545zm73.338-0.47447 10.896-0.84966c-0.0508-17.13 1.4142-34.304 0.0379-51.402-3.2941-4.9101-11.294-2.0642-16.532-2.9767-18.528 0.19753-37.199-0.47051-55.586 2.1786-7.0952 0.53295-3.5671 9.648-4.7784 14.356-0.3734 13.631-0.32813 27.268-0.46744 40.903 22.147-0.59497 44.311-0.86259 66.43-2.2086zm-58.017-5.2419c-3.73-5.0962-0.94058-12.073-1.1505-17.957 0.97059-8.1604 0.43669-16.672 3.0088-24.536 7.2515-1.1098 14.896-0.83472 22.305-1.3411 11.62-0.22328 23.275-1.5799 34.886-0.79694 8.1104 1.7885 4.2624 10.851 4.2601 16.515-0.8299 8.6489 0.14066 17.578-2.0188 26.03-10.51 2.2681-21.463 1.0859-32.15 1.9368-8.4115 0.26618-16.731 1.7965-25.118 2.2074-1.5975-0.0118-3.0264-0.84463-4.0218-2.0576zm25.673-3.8443c3.8469-1.3505-2.9121-7.2925-1.2329-10.8-3.0208-5.128-6.4291-12.232-1.0532-17.191 3.9132-6.1401 12.184-4.8419 17.859-2.3623 5.3155 3.6894 4.2833 11.04 5.1665 16.682 1.5559 3.9158-1.8044 9.3638-0.22937 12.249 5.8827 0.0639 13.352-2.6466 10.67-9.8686-0.17382-7.1658 1.9497-14.254 1.347-21.394-3.2428-5.4721-11.268-2.1901-16.645-2.8122-11.524 0.53708-23.089 1.1741-34.486 3.0348-3.5551 3.5324-1.2381 11.111-2.0811 16.301 0.57977 5.3256-2.3261 13.288 3.5894 16.18 5.5987 1.117 11.437 0.0683 17.096-0.0196zm12.367-12.803c-5.8719-3.4582-3.3985 9.8378 0.36379 2.5031 0.72126-0.73177 0.39488-1.9559-0.36379-2.5031zm-5.3033-6.6484c3.3182-0.25426 5.4661-3.3204 7.9936-5.2064-3.3951-2.2397-7.9192-5.907-11.79-2.6048-2.9666 2.7079-3.9483 12.652 2.2356 7.7265l0.91696-0.0766zm-59.02 20.245c0.12618-6.1782-3.434-11.979-2.3434-18.278 1.273-13.502 3.2468-27.021 3.076-40.604 0.78951-3.6457-6.6489-10.383-5.3418-3.0539 1.3864 7.1918-1.4655 14.258-1.2542 21.481-1.1049 4.9536 1.3908 14.838-3.0771 16.77-1.4581-8.113-0.24804-16.54 0.0801-24.757 0.47261-7.1494 1.3712-14.259 2.2858-21.362-3.1321 2.3802-5.3705 5.7456-5.1323 9.8569-0.92258 17.441-1.4557 34.928-1.3106 52.393-1.0304 6.1089 5.3242 3.8774 4.5301-0.91981 0.77039-3.0794-1.3942-9.8176 1.4928-10.711 2.1199 6.4731-0.23623 14.104 3.5624 20.051 1.1204 1.2762 2.9766 0.72854 3.4322-0.8649zm-444.61-18.866v-15.47c-7.3887-4.7364-14.251-10.268-21.76-14.8-4.8689-0.0496-9.6894-11.029-13.267-6.1699-1.4156 7.6544-3.963 15.622-2.1133 23.395 3.3034 7.6686 11.22 11.694 17.435 16.738 5.98 4.1034 11.722 8.795 18.353 11.778 1.9892-4.662 1.03-10.391 1.3525-15.471zm384.88 9.5531c-3.4876-1.6579-0.41315 7.0314-0.084 5.8535 0.21985-1.9104 0.95476-4.032 0.084-5.8535zm-7.8918-11.827c-4.8369-4.1972-10.932-7.1714-16.491-10.223 5.9042 8.5735 15.339 15.323 17.505 26.04 0.67067 2.9398 0.71216-2.707 1.0826-3.8639 0.54846-4.1216 1.8371-9.0008-2.0968-11.952zm50.727 3.1131c-0.42685-7.2676 0.96653-14.496 0.70531-21.732 0.12766-5.3786-4.7187-4.0617-4.0419 0.68641-0.91586 8.9993-2.0223 18.349 0.0652 27.248 3.1656 9.4419 3.4133-3.6746 3.2713-6.2022zm-8.2283-7.3288c-1.4392-3.3238 3.8146-7.7433-0.45778-9.7965-2.2097 5.9082-2.2501 12.573-1.9194 18.835 1.3501 7.5033 3.1733-4.5177 2.3771-9.0388zm-34.085 4.527c0.68174-2.1562-1.566-9.8054-2.2846-3.5945-0.91212 2.9907 1.2401 14.624 2.2039 6.012l0.0599-1.1668 0.0209-1.2507zm-58.788-11.045c-2.5518-3.4476-9.7698-0.28058-8.4669 4.735-0.64412 2.8582 3.2587-1.0226 4.7143-1.375 1.3792-0.93459 2.9149-1.8641 3.7526-3.36zm52.562 2.3868c0.10737-4.8867-15.099-6.1148-7.6031-1.1957 1.7846 0.63058 8.0156 6.4778 7.6031 1.1957zm16.165-5.6002c1.1209-2.9815 0.43819-10.603-1.0853-10.876-0.64318 4.5248-3.495 9.674-0.58307 13.927 0.86638-0.82313 1.206-1.994 1.6683-3.0512zm-12.798-11.237c-3.1832-4.9972-2.6222-11.443-3.0368-17.171 0.452-4.9609-1.0504-12.073 2.8083-15.4 5.3943-2.0875 2.8372-11.701 2.0803-16.51-2.4531 0.74166-0.8363 13.864-3.7904 6.6795 2.4167-7.74-9.4352-11.157-10.445-2.8084-2.2212 4.171 0.81202 11.879-2.6738 14.505-3.0826-5.5348 1.1144-12.372-1.2162-18.164-5.0259 2.0766-2.6851 12.359-3.8446 17.657-0.2692 11.48-0.69524 23.042 0.51882 34.473 3.1542 5.7796 3.4291-5.2251 3.1481-7.6348 0.33262-6.3361-0.65139-13.385 1.8441-19.198 2.1754 5.3485 1.3393 11.552 1.4254 17.266 0.39656 3.5911-2.5231 13.904 3.0099 12.482 2.361-5.1812 4.2505 0.71453 8.3375-0.92693 3.2435-0.0191 2.0217 10.922 3.0483 4.0764 0.0293-3.048 1.0737-6.8522-1.2145-9.3261zm-8.3479-1.2034c3.0768-6.9547 2.6098 5.0438 0 0zm-0.21958-14.458c-1.201-2.5412 0.75816-9.0201 2.4333-3.4232 1.0822 2.554-0.41841 12.738-2.1585 5.3823l-0.15536-0.94557-0.1194-1.0136zm0.72894-21.416c0.0956-2.3245 0.26657-13.334 2.332-6.9936-0.54511 3.9085 1.4867 13.497-2.033 14.204-0.58545-2.3489-0.39004-4.814-0.29897-7.2101zm-268.96 45.629c5.3663-4.0618-2.8754-1.3491-4.082 0.56096 1.35 0.44805 2.802-0.15461 4.082-0.56096zm45.553-12.466c0.2671-2.2619-0.2294-14.341-2.3922-6.9281 0.6968 2.7888-1.8557 12.525-3.6469 5.6514-1.6791-5.8727 3.2426-12.064 0.36372-17.481-2.9586-3.7113-1.2647 4.9954-3.0055 6.8-0.26973 5.4968-2.3001 11.717 0.0116 16.819 3.8537 0.47998 5.1017 5.1479 7.2623 6.6044 1.6261-3.5045 1.2256-7.6872 1.4071-11.466zm55.818-15.728c0.58496-6.8868 0.25907-13.997 2.2035-20.665 3.1575 2.0872 1.022 10.172 1.625 14.604 5e-3 7.7862 0.2673 15.603-1.4609 23.262-0.83524 3.1548-1.7961 12.614 3.6967 9.7335-0.41806-2.5085-1.3596-10.395 2.2902-9.0313 0.63183 3.0227 0.80731 6.1188 1.202 9.1786 3.5382-0.38436 7.4955 0.48451 10.691-1.151 1.956-3.6913-3.7769-12.803-3.8422-4.4526 0.57386 3.8353-2.7682 4.7384-2.3092 0.32326 0.31366-3.4789-1.6507-11.344 2.2875-12.017 0.75392 2.504 3.1223 6.4154 3.83 1.3015 1.5381-11.878 3.8131-23.756 3.8931-35.767 0.73644-4.1601-3.1062-5.7573-3.0833-0.6355-2.0304 10.18-2.4164 20.603-3.4148 30.9-3.6951 2.3311-1.7755-7.4453-2.2744-9.713-0.12776-5.5333 0.93894-11.392-0.88869-16.705-3.242 2.5552-1.6913 10.172-2.7651 14.734-0.69238 6.7239-0.60606 13.619-2.39 20.166-4.4129 1.1938-1.7831-8.4101-2.0345-11.545 0.68289-9.4388 2.3474-19.002 1.0195-28.439-0.45646-4.848-3.9366-2.9924-3.5876 0.96115-1.8004 5.2656-4.1083 0.82568-2.3784-2.3492-0.75482-7.4303-6.5754 10.026-7.316 1.1487 0.20532-7.5136-4.6355 1.594-4.121 4.7206-0.14078 2.5555-2.1036 11.086 1.5077 9.8375-1.0403-3.2006 3.9326-12.263 4.644-4.9291 0.65511 13.063-2.454 25.971-2.4104 38.994-0.11108 3.552 3.2295 7.0803 3.3438 1.5038 1.1868-7.9303 1.5402-15.972 2.0427-23.969zm82.403 16.967c-0.93109-2.7634 1.2651-12.014 3.5314-5.4753 0.75726 3.9232-0.74525 11.721 1.982 13.198 2.0929-10.74 1.9728-21.788 3.4446-32.615 2.5696-4.9323 6.3966 2.8198 3.9754 5.8285-0.97714 9.3088-2.0346 18.763-1.2098 28.106 3.6074 4.3354 3.1451-7.9617 3.3953-10.655 0.64424-6.0504-1.5201-13.955 3.5352-18.369 4.2789 2.9837-0.71564 10.799 0.99224 15.77 0.20979 4.3662 0.60139 8.7214 0.90016 13.082 2.8546-0.1498 5.9708 0.76021 8.6102-0.4835 1.7739-2.2768 1.1867-12.859 5.1835-8.8248 0.95803 2.9322-0.68512 13.538 4.741 7.8821 3.2937 2.0772 9.6733 2.749 7.5431-3.4355-0.91478-9.2791-0.028-18.664 0.69361-27.937 0.14128-5.9517 2.8988-11.477 3.0676-17.324 0.64936-2.9723-2.6154-9.9594-3.5648-3.5338-2.2722 10.747-2.8054 21.885-5.9556 32.426-2.6192-5.0272-0.17047-13.714 0.1167-20-0.86332-3.8066 4.7332-11.486 0.52303-12.786-3.3125 5.1704-3.0747 11.827-4.651 17.671 0.39957 3.0431-3.3563 7.325-3.7018 2.0191 2.0092-6.1389 2.1958-12.852 1.8663-19.256-6.0375-5.9817-5.9521 5.416-5.6454 9.4532 0.38347 7.2235-2.0722 14.104-1.9559 21.304-0.75996 6.2905 1.0727 13.612-1.9375 19.237-4.0416-3.7542-0.98532-11.095-1.5275-16.327 0.65787-11.191 1.5885-22.38 3.2955-33.463-1.959-5.6543-6.0942 3.42-5.4656 6.4849-0.0738 2.5796-2.1394 9.5619-2.4637 3.3311-0.64595-3.5786 1.1224-15.376-5.1109-9.8071-0.24564 5.0693 1.3118 13.684-3.6664 16.298-2.0594-4.9132 1.8316-11.547-1.381-15.793-5.638 1.4705-3.5047 9.9938-4.5734 14.629 0.17863 6.4605-4.5704 4.7671-4.8762-0.12823-1.2383 1.7967-3.5643 9.1487 1.6154 8.1953 5.209-1.2311 1.6392 14.779-0.96484 7.1316-3.3751-6.6619-3.2783 5.4258-3.9377 7.8889-0.49477 5.3293-1.2076 10.75-0.58787 16.084 4.6927 1.3236 3.933-7.0741 4.1647-9.805zm38.382 2.4366c-0.16512-3.5691-1.0591-11.06 2.3898-12.208 2.5154 1.7883 1.7425 19.469-2.3898 12.208zm-6.0062-8.4368c3.0768-6.9547 2.6098 5.0438 0 0zm0-6.9223c3.074-4.7962 3.1001 4.6905 0 0zm0-3.6622c2.9568-5.0258 3.0428 3.1436 0 0zm-13.986-6.5144c-0.60033-1.2312 1.2854-9.5425 2.278-6.581 1.857 2.1675 0.97196 9.8506-2.278 6.581zm43.774 28.672c-1.9936-6.0191 0.97923-12.369 0.72429-18.553 0.79395-7.221 0.15204-14.753 2.4151-21.713 2.5359-1.642 2.5882 8.3711 4.0716 1.9767-0.0752-3.7414 2.0579-12.663-1.8558-13.029-1.9393 0.46627-1.6843 9.1492-2.6078 5.9508-0.11311-3.6317-3.9366-8.2851-4.8811-1.9968-1.7526 11.688-1.1909 23.594-2.2848 35.356 0.22689 5.3536-1.8555 11.741 1.0206 16.443 2.3236 0.1569 5.4627-1.9022 3.3979-4.4345zm-235.97-6.7886c0.75165-3.0492-2.0862-11.842-3.2253-4.5632 0.55841 4.2098-2.294 12.822 1.1578 14.715 2.4549-2.6338 1.8904-6.8125 2.0675-10.152zm12.763 8.9456c-0.98259-7.2164 2.5761-14.727-0.12494-21.748-4.1343 0.83338-3.524 8.9006-3.6892 12.819-0.29162 2.005 1.5108 15.236 3.8141 8.9294zm41.262-8.9022c-0.49211-7.036 2.2472-13.688 2.4114-20.703 0.67096-7.6816 1.2967-15.439 2.4894-23.015-5.4888 1.7633-3.6943 11.204-5.0096 16.193-0.80196 7.5796-0.85279 15.3-2.4794 22.755-5.59-0.23286 0.46338-10.524-2.811-14.188-3.1996 4.4855-1.7018 11.898-2.6172 17.528-0.36171 3.1307-0.51574 10.26 2.3596 4.0392 3.5192-2.0919 3.3221 12.469 5.3706 4.2538 0.3074-2.2728 0.33755-4.5736 0.2862-6.8631zm19.838 8.5594c-4.6111-4.4866-3.3362 3.8819 1.1119 2.0491 1.1543-0.45806-1.0239-1.5938-1.1119-2.0491zm45.594-3.8098c1.6999-11.821 0.73111-24.054 4.0638-35.605 3.4487-5.269 1.9104 5.9707 2.0042 8.3699-0.15506 10.879-3.7301 21.958-0.82525 32.706 3.1985-2.5151 2.5211-11.303 3.8948-16.11 0.72752-6.3079 3.6437-12.526 1.7846-18.914-0.9343-6.3994 0.0174-13.052-1.5584-19.323-3.5176 0.17202-2.0732 8.3181-4.8221 3.1864-2.72-7.4044-5.847 2.323-5.2153 6.0318-1.2581 14.713-2.4596 29.521-1.7763 44.29 0.86481 3.9088 2.4851-3.7286 2.45-4.6333zm23.687 2.0235c1.5241-7.1084-0.4314-14.77 2.4458-21.573 4.8024-2.7701 1.5602 9.4269 1.8782 12.733 0.13988 3.0267-2.3998 12.609 2.4363 10.471 1.7759-6.6034 1.0028-13.631 1.8672-20.405 0.79069-10.606 1.7294-21.223 3.0837-31.759-2.6095-4.0784-12.615-1.6573-12.209 4.0805-2.0706 15.517-1.5146 31.267-3.4684 46.795 0.14599 4.8444 3.5977 4.4245 3.9663-0.34224zm3.4653-30.013c-0.11753-5.773-2.1233-12.638 2.6808-17.151 1.6008 5.2154 0.29172 11.168-0.16457 16.612 0.33328 3.2134-2.8466 7.8109-2.5254 1.9062l9e-3 -1.3677zm10.494 32.488c1.899-7.8474 1.5612-16.083 2.6791-24.078 0.7038-9.3002 2.5162-18.62 1.8468-27.958-4.9033-3.3935-4.233 7.7148-4.7705 11.068-0.17052 11.912-2.3194 23.667-2.9241 35.537-0.074 1.8942 5e-3 10.207 3.1688 5.4311zm7.8642-6.6333c-1.5086-4.328-4.094 4.7708-2.1826 7.3221 0.51518 3.0328 1.6098-4.2952 1.9605-5.4234l0.10352-0.7033zm61.877 5.2478c1.8407-10.603 1.6579-21.453 2.4805-32.167-0.21252-3.7835 0.54897-9.1107-1.8052-11.729-2.6689 9.0068-1.6954 18.65-2.8487 27.923 0.33114 6.0748-3.3583 12.236-1.2362 18.112 1.5755 1.9414 3.0169-0.81121 3.4095-2.1385zm15.178-15.331c-0.34367-4.4386 1.1299-13.96-1.1668-15.405-1.6392 10.526-1.8173 21.326-1.0656 31.944 1.8211 2.4977 1.6831-6.2897 1.9548-8.3406 0.14053-2.7309 0.22183-5.4646 0.27766-8.1985zm-180.87 6.6401c0.64199-9.2987 0.21643-19.236 4.4666-27.763 5.6045-2.2324 6.8566-9.1941 5.6646-14.783-5.3235-0.72394-0.0264 11.248-4.6482 11.335-2.0125-3.2056 0.39069-10.957-3.6631-11.402-1.519 9.6769-3.1661 19.352-3.4568 29.167-0.5523 7.683-2.6266 15.795 0.092 23.258 1.8924-1.7829 1.085-6.9871 1.5447-9.8127zm6.7547 5.0724c-1.2509-5.4928 1.4644-11.017 0.62126-16.666 0.46764-2.4775-1.021-10.336-1.9368-3.9791-0.29257 7.9901-2.4207 16.103-0.66747 24.034 2.4403 4.1469 2.9829-1.6361 1.983-3.3885zm14.421-0.72608c1.2063-7.802 1.6589-15.804 0.87297-23.669-2.5895-2.8474-2.4947 6.276-3.2237 8.4101-1.0154 6.8981-2.4869 14.044-0.75139 20.947 2.0423 0.11985 2.552-4.0478 3.1022-5.6884zm53.119-1.6722c1.645-13.754 1.0249-27.708 3.2125-41.398 3.7709-5.0865-5.7705-7.1673-4.4004-0.83423-0.19761 16.22-1.556 32.418-2.6475 48.577 1.9465 4.3913 3.995-5.8062 3.8354-6.3446zm-129.75 4.3867c-2.693-5.3587-3.1956 6.9621 0 0zm36.112-4.981c0.88821-3.2662-2.3061-8.1624-3.2244-2.417-1.8017 3.0114 1.7406 13.084 3.0172 5.6314 0.14296-1.0651 0.20598-2.1401 0.20717-3.2144zm-71.716 3.681c3.7901 0.24754 6.8195 2.7151 10.39-0.38244 2.9019 0.46129 11.212-4.7384 5.8963-5.7416-7.2708 4.0139-15.967 3.2269-23.994 3.964-18.737 1.0328-37.542 0.0542-56.258 1.3324-6.6146 2.32 4.9564 3.0275 7.3972 2.6454 18.854-0.26108 37.77-0.31987 56.568-1.8178zm51.792 0.43957c0.0707-2.6428 0.41021-8.222-2.4649-3.1988-4.7938-0.59151-0.80889-11.053 4.1154-11.509 1.2823-3.5783 2.7495-12.342-0.52222-13.998-1.9977 4.0091 0.74303 10.627-2.5164 13.363-2.841-3.1911 1.4477-10.944-1.8923-12.298-2.2234 7.14-2.6663 14.827-2.5747 22.271-0.27335 2.0702 4.3338 9.5289 5.8552 5.3694zm-27.414-0.62262c-0.0767-4.2677-4.3442-3.8462-2.8007 0.18956 0.57429 0.75031 2.74 1.2209 2.8007-0.18956zm291.73-4.51c-4.2258-2.2604-1.0755 9.72 0.0262 2.4279 0.12961-0.78764 0.31628-1.6604-0.0262-2.4279zm-387.59 3.451c-1.6628-7.9258-12.448-4.9214-16.268-11.527-4.3161-3.112-8.738-6.238-13.6-8.366-3.9508-5.2778-10.494-7.4206-15.07-12.06-2.2457-3.3848-7.3274-1.6966-3.184 1.785 4.7194 4.4261 11.429 6.401 15.258 11.804 4.8637 2.879 10.01 5.2641 14.309 9.046 5.7548 3.585 11.262 8.1021 17.847 9.9817l0.53212-0.17807zm177.38-11.794c0.37348-10.702 2.0475-21.409 1.3809-32.118-2.6823-2.9586-3.6518 8.5626-4.0003 11.549-0.71505 10.235-1.4381 20.545-0.69817 30.791 3.147 2.7464 2.9251-8.6461 3.3176-10.222zm237.92-0.96128c-1.3246-3.7097 3.2969-11.962 0.42399-12.821-4.3181 6.4038-4.7609 14.783-3.729 22.226 2.577 6.8015 3.7946-6.1693 3.305-9.4052zm-306.98 3.0823c1.1462-4.3929-3.1784-5.386-3.2893-0.69011-1.7905 3.4578 1.5459 12.555 2.9651 4.5719 0.22372-1.2809 0.31756-2.5823 0.32414-3.8818zm266.5 5.7073c-3.4997-0.69567-6.3848-12.006-0.10049-9.4018 2.4246-2.816 2.642-10.749 0.74737-14.028 0.15958 2.8622-3.1038 13.199-5.5623 6.4289-1.6375-7.9712-3.1441 3.7934-2.5353 6.6936-0.10011 4.6214 0.14997 15.483 7.2149 10.925zm142.58-2.7439 8.7167-0.98002c-21.258-0.81112-42.563-0.91008-63.797 0.51576-2.894-0.0143-11.449 1.2475-3.8399 1.8212 19.249 0.56753 38.545 0.0383 57.758-1.2379zm-467.57-0.27c10.545-0.28284 21.218 0.40654 31.669-1.1542-2.9482-2.5394-10.545-1.1522-15.2-1.662-19.536 0.18859-39.103-0.16331-58.613 0.98482-7.1657 1.9312 5.7295 3.6755 8.3276 2.3325 11.267-0.38788 22.544-0.44085 33.817-0.50111zm218.09-1.347c-0.29707-13.292 4.8614-26.312 3.1129-39.638-3.9524-2.8087-4.1681 7.401-4.2192 10.548 0.23243 9.1388-1.3683 18.155-2.259 27.198-0.75901 3.1596 2.8818 7.5946 3.3653 1.8921zm-267.93-0.2c-2.3332-5.3403-8.287-7.9714-12.828-11.255-4.7866-3.8583-9.2111-6.9136-14.54-10.112-2.6278-3.8664-9.0849-1.6909-4.8539 2.4348 7.3987 3.674 14.168 8.5332 20.842 13.304 4.8653 0.39655 7.1454 6.6711 11.016 6.9821l0.26708-0.54663 0.0965-0.80809zm94.145-1.6413c-2.4111 1.8448 1.3922 5.065 0 0zm286.67-4.073c0.72768-2.7575-2.1053-7.5525-2.2322-2.0877-0.87636 2.4112 2.5095 10.707 2.2376 3.8823l3e-3 -0.84409-8e-3 -0.95046zm-237.04 0.93393c1.6015-9.7284 2.123-19.728 3.8528-29.363-5.3667-3.0983-4.6076 8.2349-5.4464 11.862-0.54229 4.015-0.26217 9.9934-5.7286 8.6407-5.2825 3.725 2.7459 1.272 4.0464 3.0541 0.0363 1.9474 0.45705 13.944 3.2757 5.806zm340.62 0.51992c4.0935 0.46685 4.9241-1.9844 0.43977-1.6076-11.628-0.26642-23.331-0.32221-34.898 0.96431 4.1336 1.4724 12.257 0.72601 17.932 0.99444 5.51-9e-3 11.022-0.0839 16.526-0.35111zm27.084-0.3289c2.6072 1.0005 9.9626-1.3575 3.9621-2.5412-5.3848-4.2709 2.4704-7.2025 6.291-4.903 6.7713-0.48646 5.1025-9.7147 5.9787-14.618 0.66486-13.685 0.85125-27.387 1.2485-41.081-10.365-2.8364-21.195-1.1312-31.782-1.2158-11.729 0.11504-23.527 1.1158-35.214-0.20167-4.6059 0.81811-2.9938-9.0736-7.4542-4.3134 2.0236 1.9269 4.0368 5.8461-1.1819 5.6601-2.971 4.9382-0.8292 11.934-1.743 17.677-0.069 12.015-1.275 24.091-0.16394 36.075 4.067 4.219 12.683 1.3699 18.479 2.5198 13.185 0.43957 26.441-0.40286 39.576 0.93235 4.9434 3.1344-5.7095 3.4966-7.9219 3.3942-2.9497-0.13825-14.859 0.99939-6.9398 2.968 5.61 0.85113 11.212-0.89701 16.865-0.35288zm-51.925-12.236c-3.2539-4.7272-1.0805-11.429-1.5501-16.996 0.45549-9.4942-0.12102-19.211 2.027-28.509 5.3764-2.206 11.555-1.455 17.276-2.022 14.387-0.42457 28.804-1.092 43.189-0.36622 3.339 3.658 1.3793 10.886 2.1378 15.926-0.0777 9.9614 0.16965 20.017-1.3666 29.884-4.9776 3.0732-12.572 1.4799-18.567 2.3618-14.009 0.34485-28.071 1.0092-42.063-5e-3l-1.0822-0.27235h1e-5zm25.215-9.2535c-3.0382-5.7633-5.9232-12.09-3.0464-18.637 3.9324-8.4707 18.976-8.2409 22.234 0.7395 2.03 3.8675-1.9655 8.0903-3.9066 2.6987-1.6053-5.7984-15.001-6.338-13.788 0.69245 2.6259 5.66 11.177-1.3123 14.764 4.2422 5.3322 1.929 2.7506 11.485-0.6673 14.441-1.1609 4.0227 6.9092-0.26071 9.5712 0.21331 2.1508-1.1333 7.4856-0.72746 7.464-3.8032v-34.39c-17.007 0.11116-34.167 0.0491-50.953 3.0421-4.6739 4.2947-2.1738 13.161-3.2327 19.218 1.2015 5.0788-4.1659 15.755 4.3656 15.61 5.3794 0.10228 10.517 2.5455 15.89 1.4816 2.8925 0.20737 3.8794-0.73552 2.1707-3.3054-0.28863-0.74763-0.57731-1.4952-0.8659-2.2429zm-426.44 18.923c8.0178-0.2316 16.143 0.18626 24.064-1.2219 1.8493-5.054 1.1036-11.279 1.6705-16.818 0.34018-12.684 1.2614-25.439 0.0294-38.094-2.9755-6.2818-13.332-2.8134-19.247-3.7372-17.444 0.55665-34.947-0.14254-52.348 1.3284-6.7697 0.93202-3.5561 10.553-4.8712 15.372-0.46493 14.086-1.124 28.209-0.46839 42.291 3.4036 4.57 11.066 0.98212 16.16 1.6826 11.664-0.48302 23.339-0.6935 35.011-0.80363zm-46.524-11.199c1.5344-13.645 1.2467-27.453 2.7941-41.073 2.7106-7.0385 10.898 1.1635 16.01-2.6527 6.1258-0.0544 12.264 1.6489 18.458 0.39894 8.4596-0.58686 17.451-2.7515 25.649 0.30959 6.6581 3.6172 1.6487 12.426 2.6138 18.345-0.80969 8.9885 0.75821 18.507-2.5329 27.091-3.865 4.5615-11.083 2.3826-16.467 3.1655-14.724 0.53087-29.583-0.43023-44.203 1.6135-2.7107 1.1928-3.749 0.50221-2.8187-2.4053 0.16558-1.5975 0.33119-3.1951 0.49677-4.7926zm29.776 0.69077c2.9499-3.9698-4.4566-9.5594-2.6437-14.744-3.5729-4.7896-3.1343-10.716 1.5163-14.66 5.7246-5.8991 15.818-3.4954 20.391 2.5488-0.42254 5.9515 2.4009 11.695 1.9218 17.49-1.0352 3.6394-9.3364 10.192-0.67737 8.4208 7.1205 1.0706 10.68-3.8027 9.272-10.49 0.1877-8.1636 1.1319-16.339 0.90284-24.493-2.9688-4.3591-11.223-1.128-16.223-2.2119-11.777 0.25115-23.671-0.31688-35.358 1.3191-2.6981-0.11895-0.94539 3.4535-1.4583 5.1469-0.0533 10.347-0.10651 20.693-0.15972 31.04 7.4358 0.934 15.075 1.7985 22.517 0.63235zm11.967-11.637c-3.8423-7.3821-2.6937 5.0852 0 0zm-5.1756-7.9566c7.0716 2.2392 8.9057-10.272 0.63996-7.1401-4.6278-1.2214-10.693 4.707-6.7986 8.1727 1.8894-0.97839 4.039-1.5572 6.1586-1.0326zm49.316 27.913c-2.6211-3.9245-1.2179-9.8996-0.75959-14.85 0.72688-8.7194 2.1937-17.584 0.979-26.293-5.9764-5.8919-9.241 3.7712-7.7169 8.9516 0.60911 10.939-1.0786 21.874-0.66099 32.784 2.4594 0.97501 5.8899 0.785 8.1585-0.59314zm14.468-10.163c11.797-11.523 25.635-22.413 42.433-24.897 10.369-1.6656 21.059-2.2165 31.429-0.38987 5.1578-1.779 9.8409-6.4514 15.355-1.9174 5.754 3.2392 11.485 0.90324 17.472 0.68346 25.833-0.7662 51.713 1.4561 77.509-0.65659 15.821-0.83462 31.699 0.40753 47.494-0.78488 6.2249 0.79268 5.3167-7.779-0.48091-6.2802-24.776-0.83515-49.579 0.0372-74.364 0.1211-53.457 0.70308-106.93 0.8685-160.37 2.1763-8.3595-0.85101-4.0363 10.9-5.4388 16.027-0.17027 8.4575-2.108 16.744-2.5765 25.165 2.9342 0.35492 8.1698-6.708 11.542-9.2465zm-111.95 6.6327c0.54677-16.506 1.4115-33.009 1.8289-49.518 0.98545-6.5585-4.7015-10.38-9.9909-12.56-8.4707-4.7571-15.156-12.056-23.686-16.712-3.7186-1.9227-2.799-4.4837-0.84191-6.3963-5.2878-0.50836-10.719-3.4454-16.245-2.3949-3.9663 0.93473-8.0443 0.55483-12.009-0.13875-0.085 16.891-0.16999 33.783-0.25498 50.674 4.0809 3.0628 9.1483 5.2486 11.941 9.6596 1.766 3.4381 9.1552 1.7569 12.239 5.7155 6.134 2.6333 9.6588 7.6755 15.364 10.636 6.7024 4.0669 12.053 10.583 19.634 13.027 1.1731 0.28283 2.0849-0.93936 2.0209-1.9923zm-15.771-14.712c-8.5847-6.3878-19.144-9.8354-26.794-17.557-4.0893-4.7699-12.559-5.4302-11.428-13.427-0.59035-12.135 1.475-24.23 3.4978-36.153 1.182-8.8681 8.2713 0.0304 11.81 2.3016 5.1794 3.1004 10.5 6.1787 15.371 9.5026 5.5752 2.601 9.8327 7.4801 14.7 11.191 2.0849 6.9288-8.8226 0.43682-11.36-1.9423-7.8615-4.9903-15.695-10.016-22.982-15.811-1.9306-1.6423-3.7296-2.9349-3.7249 0.56679-1.432 9.3893-1.7154 18.908-2.4428 28.371 6.8944 7.9848 14.535 15.474 23.93 20.482 3.8522 1.6418 9.1562 6.4933 12.695 5.5654 0.68658-10.007-0.19406-20.178 1.5742-30.077 5.4421-6.4274 4.2179 7.2438 4.3351 10.717-0.22732 8.8904 0.36455 17.909-1.3242 26.683-1.077 5.2838-5.5532 1.5202-7.8581-0.41253zm459.43 14.73c1.9929-12.471 1.6101-25.205 2.7792-37.773l0.51178-7.6088c-2.9734 2.3884-6.4574 4.1357-10.306 4.2699-2.2336 5.3739-1.0061 11.629-1.4556 17.38-0.40141 6.5941 0.75474 13.666-1.7751 19.885-2.4952 4.1098 8.4302 8.5133 10.246 3.8472zm-14.01-22.42c-0.24737-6.2813-0.23409-12.599-0.94941-18.845-15.474-0.88816-31.024-0.205-46.526-0.0985-9.7297 0.3226-19.52 0.12032-29.199 1.1675-2.4206 5.809 8.4155 5.6814 12.255 6.2134 11.961-0.29447 23.142 4.4994 33.7 9.5729 9.0745 3.142 15.215 11.149 23.988 14.797 3.2177 1.3577 8.8018 9.2909 7.0864 1.3363-0.10882-4.7146-0.2302-9.4289-0.35466-14.143zm-290.54 6.8488c0.39387-5.1991-2.9579-2.7706-2.1582 0.91196-0.30147 2.7278 0.1011 12.275 1.441 4.5274 0.33982-1.797 0.61941-3.6114 0.71719-5.4394zm-6.1664 3.7357c-3.2586-4.0371-2.7414 9.8561-0.73526 2.3837 0.27739-0.78186 0.60258-1.5592 0.73526-2.3837zm250.91-0.36858c1.8621-3.3979-1.8342-7.5802-2.7013-2.0434-1.2134 3.3426 1.0337 8.4588 2.7013 2.0434zm-419.84 1.1808c0.68647-6.6021-10.034-6.3026-12.719-11.591-3.4518-3.3852-8.462-6.0041-12.901-8.0331-0.50824 7.0906 8.1384 8.9036 12.798 12.246 4.3928 1.1605 8.4456 9.0294 12.822 7.3784zm-17.763-3.3455c-0.59002-3.9575-12.694-8.5063-6.8196-2.0616 1.4462 0.69388 6.9119 5.7147 6.8196 2.0616zm330.77-6.4947c0.79878-3.2919-2.7443-8.1563-2.0228-2.039-0.2015 2.6227 0.10194 13.83 1.826 6.1055 0.17276-1.3474 0.23752-2.7087 0.19686-4.0665zm-124.06 1.1717c-2.7187-9.7971-4.3342 10.198-0.088 1.2346zm224.14-1.38c0.48899-3.9511-1.0352-4.48-1.4612-0.4808-1.6428 5.0446 1.4251 7.4614 1.4612 0.4808zm-46.074-3.3206c-0.17729-5.5601-5.7421-1.0414-1.6665 1.5081 0.99167 0.61286 1.7388-0.66172 1.6665-1.5081zm-232.83-23.948c3.2202-5.0278 0.32075-14.951-6.1569-8.5856-2.3318 3.9284-2.8044 15.017 4.4907 11.032 0.82371-0.60745 1.3112-1.519 1.6662-2.4463zm58.103 1.9664c11.133 0.0797 22.317-0.22388 33.404 0.80091 5.3687-1.0043 5.3462-7.4344 4.3125-11.661-0.41267-2.0792-3.9584-0.45805-5.7218-0.94196-27.263 0.35634-54.55 0.0294-81.787 1.3724-2.7909 2.0747-4.6164 12.946 2.0584 10.964 15.909-0.19611 31.821-0.52686 47.734-0.53516zm123.67-0.56429c22.311-0.19881 44.622-0.35296 66.931-0.62648 1.3725-5.2701 0.4355-12.298-6.5951-10.103-43.139-0.0157-86.282 0.52195-129.42-0.0901-5.306-0.61857-12.484 0.0782-10.549 7.316-0.18492 7.9838 9.6345 3.4561 14.492 4.3265 21.711-0.43203 43.426-0.62729 65.139-0.82348zm165.39-9.6128c-4.8103-3.2118-13.061 1.6354-8.2636 6.8836 3.6918 0.97697 10.912 4.8558 9.5639-2.4757-0.0258-1.5061-0.0437-3.343-1.3003-4.4079zm-14.961 4.1265c-0.55775-1.6824 0.78649-5.4126-2.1185-4.5678l-73.286-0.68626c-0.61 3.2528-3.9296 8.844 1.4819 9.3201 13.796 1.2958 27.702 0.4017 41.545 0.5892 10.919-0.0346 21.838-0.0692 32.757-0.10379zm-349.05-7.6111c2.8836 0.64194 7.3026-1.4529 1.8866-1.7557-6.4686 1.7625-11.746-2.9091-17.72-0.25438-17.464 1.3255-35.073-0.48685-52.493 1.5265-3.3059 2.0266 7.4162 1.0668 9.6346 1.4001 19.567 0.0117 39.128-0.65592 58.692-0.91648zm386.01-1.319c-5.3645-3.0904-1.9985 4.857 0 0zm16.201 0.0203c-0.86579-3.8661-7.569 1.6376-1.8065 1.147 0.69292-0.18691 1.3951-0.53175 1.8065-1.147zm15.462 0.80148c-2.6382-2.4576-13.045-0.75485-4.9642 0.41898 1.6003-0.0733 3.5273 0.27567 4.9642-0.41898zm-305.21-3.9515c2.1563-2.0054 1.2771-6.5582 0.50666-8.6876-27.23-0.61014-54.477-0.46203-81.707-0.0147-6.1812-1.614-11.28 9.9178-2.4364 8.9914 22.165 1.3943 44.413 0.66943 66.608 0.45631 5.6736-0.19841 11.384-0.10618 17.029-0.74539zm131.82 0.68509c7.1271-9e-3 14.254-0.017 21.381-0.0255 0.23752-2.7264 2.6327-7.0037 0.0398-8.6257-26.579-1.2916-53.214-1.3798-79.823-1.2324-15.149 0.54855-30.3 0.20793-45.451 0.12251-5.996 0.0684-11.99 0.26008-17.984 0.39829-0.62867 2.7866-4.7187 7.2574-1.2493 8.9151 17.26 1.4183 34.627 0.71024 51.935 0.81748 23.717-0.15147 47.434-0.31907 71.151-0.36974zm66.631-0.0716c12.29-0.21678 24.668 0.31861 36.891-1.004 4.2084-0.55998 2.0587-5.4359 2.1113-8.2721-23.065 0.0981-46.137-0.272-69.196 0.28402-4.8549-0.79843-11.84 2.1068-7.218 7.7032 4.5829 3.9558 11.547 0.29417 17.192 1.3905 6.7396-0.0725 13.481-0.1 20.22-0.10169zm-291.41-4.9348c1.8035-8.1447-11.065-4.6887-9.9646 1.3952-0.48492 2.4369-0.7519 4.6612 2.4132 3.5375 3.4275-0.48946 9.4249 0.75504 7.5514-4.9326zm347.3 3.0179c5.4486-3.1564 12.544 0.43594 18.685-0.60902 22.364 0.0938 44.772 0.0748 67.082-1.5919 3.2195 0.36289 11.702-3.7876 4.1527-4.3803-19.289-1.7595-38.708-0.92162-58.053-0.98454-8.9543 0.37354-18.091-0.48331-26.914 1.2841-2.06 1.1931-3.9559 5.4466-5.1048 0.71636-4.9046-4.5752-15.114 2.3036-9.6468 7.2256 3.1918 0.60986 7.1854 0.49419 9.7986-1.6603zm-402.29-0.70984c12.755-0.26785 25.6 1.1302 38.301-0.46588 2.784-6.4683-9.3652-5.3074-13.554-5.5735-21.011-0.27579-42.026-0.26793-63.038-0.14359-5.2857 4.6685 4.9132 7.2725 8.8072 6.4891 9.8178 0.4248 19.682 0.46824 29.484-0.30619zm-51.677-2.3081c-4.2674-4.3171-1.9237 3.4634 0.20057 0.4835zm-14.943-8.7166c-4.3726-4.643-0.20475 4.9213 0 0zm126.42-1.2603c22.087-1.433 44.263-1.4533 66.394-2.0155 35.215-0.64518 70.445-1.2825 105.66-0.0793 20.337 0.65952 40.678 0.66421 61.02 0.27024 21.07-0.43247 42.19 0.0567 63.219-1.4717 3.3512-1.0174 3.4058-1.7736 6.0071 0.81372 8.803 2.6332 18.137 0.91888 27.179 1.3211 36.967-0.37488 73.949-0.0405 110.9-1.1223 3.556 0.45874 11.287-1.0493 4.3029-3.7734-8.1996-3.8039-17.413-2.1659-26.138-3.0618-12.484-0.85519-24.982-1.0237-37.484-0.52964-24.204 0.22344-48.418 0.92051-72.62 0.42119-5.3335 1.7773-7.2272-8.5527-11.681-2.1756-4.8432 3.59-11.826 1.6448-17.56 2.3451-12.148 0.24717-24.366-0.21143-36.461 1.0124-5.3747-1.5573-11.514-2.512-17.481-1.944-24.312 0.52066-48.611 1.768-72.936 1.3724-86.309-7e-3 -172.62 0.50555-258.93-0.33149-6.798 0.12648-13.71-0.75856-20.436 0.33742 4.7451 4.6385 11.88 5.2362 17.678 7.5259 11.208 1.0146 22.499-0.16794 33.741 0.0246 23.114-0.0919 46.257-0.46774 69.349 0.68952 2.6226 0.29984 3.5227 2.8004 6.2741 0.37106zm-143.45-13.13c-2.909-1.6592-13.364-2.3611-13.639 0.25112 4.3914 1.0842 9.3443 1.2583 13.639-0.25112zm21.966 0.7639c0.77715-5.7815-11.988 0.93836-3.748 1.1323 1.2668-0.0765 2.8434-0.0775 3.748-1.1323zm-15.512-1.3313c-3.074-4.7962-3.1001 4.6905 0 0zm40.782 0.38685c-3.607-0.98172-6.6614 0.98451-1.3482 0.55787 0.32257 0.0146 2.9147-0.12858 1.3482-0.55787zm74.403-0.38685c3.0004-2.0498-12.979-1.2841-4.2844 0.75582 1.4416 0.86426 2.9271-0.36932 4.2844-0.75582zm22.944-1.3028c-3.5432-2.5042-6.3942 3.2485-1.0456 1.6357 0.74423 0.0138 2.6122-0.95397 1.0456-1.6357zm24.375 1.3028c-2.9739-1.8152-6.6453-0.871-9.9619-0.95058 3.3391 0.63022 6.7713 2.3447 10.125 1.736l0.0424-0.32727-0.20531-0.45818zm47.319 0c-6.4176-1.9076-13.294-0.68167-19.924-0.78853 6.8003 0.57585 13.627 0.96535 20.397 1.7958l-0.043-0.19492-0.43049-0.81237zm14.943 0c-1.821-4.6995-5.458 4.2248 0 0zm28.64 0c-0.67864-3.5278-9.3183 0.65919-3.1866 1.2452 1.13-0.0484 2.4453-0.30017 3.1866-1.2452zm42.283 0.0897c-0.75757-1.9452-7.6653-4.597-1.6643-5.9092 9.1445-1.1912 18.522-1.4919 27.681-0.32783 6.7405 1.8181 1.5026 5.9094-2.908 5.5371 3.7363 0.90828 11.316 1.7703 16.328 0.47546 0.88629-2.8401-12.181-2.1692-7.3601-5.3976 17.018-1.3884 34.136-0.49123 51.194-0.74526 52.219-0.0686 104.45 0.75296 156.66-0.3316 3.2092 0.28077 8.5642-0.87353 2.4938-2.2776-18.234-6.6763-37.142-11.27-55.375-17.958-5.8912-2.0737-11.941-3.7102-17.985-5.1322-6.4982-4.1422-14.474-2.4078-21.77-2.4934-2.5888 0.0755-5.1776 0.15094-7.7664 0.22642 13.146 5.3833 26.468 10.379 40.118 14.325 5.0852 0.65057 7.7166 7.7624 0.67463 7.1228-20.329 1.6022-40.762 0.88544-61.139 1.085-35.361-0.11676-70.735 0.13615-106.09-0.79767-0.45858-4.5817 9.7372-2.5879 13.779-3.2879 42.49-0.63574 84.991-0.27433 127.48 0.0267 5.2502-0.26745 11.543 1.0716 16.174-1.0594-4.4756-4.4663-9.6567-3.3272-14.881-1.9247-4.7847-0.64544 2.9951-3.6178-1.9057-4.6098-8.068-4.0759-17.421-4.5955-25.313-9.1588-5.0194-2.8522-10.879-3.4973-16.009-5.9566-4.521-6.9637-9.9385 2.703-3.4164 5.4961 2.9005 1.56 12.726 5.477 6.0832 8.3705-5.1979-0.41653-10.007-3.7267-14.387-0.15058-27.499 0.67101-55.028 0.39907-82.521-0.43907-2.821 0.95225-11.308-2.6147-4.8134-3.8353 26.759-0.80802 53.552 0.53483 80.298-0.68294 2.8679 0.33026 6.3028-1.593 1.3871-2.3364-5.3222-0.87617-10.915-6.1671-16.117-4.1833-4.6852 4.8117-12.585 2.4784-18.68 3.2536-10.072 0.021-20.11-1.6718-30.181-0.42151-3.027 0.0783-6.2078 0.75115-9.1411 0.46676-5.8568-4.1433-12.976-7.329-16.724-13.647-7.6458-1.891-15.74-0.9442-23.571-1.3251-30.571-0.27661-61.176 0.38388-91.721-1.0173-3.4932-1.1102-7.48 0.14766-2.0496 2.1465 11.261 6.1688 22.93 11.543 34.43 17.243 26.065 0.0774 52.139-0.45864 78.195 0.30539 3.5321-1.3802 12.901 3.1245 5.5917 4.7267-22.142 0.8929-44.324 0.50066-66.483 0.73377-9.6976-0.23399-19.542 0.5056-29.119-1.2761-2.8678-1.6947-1.7297-6.6487-6.3272-7.5276-5.0183-3.3603-11.117-4.5048-15.911-8.1867-6.1528-3.7516-13.849 1.0398-20.044-2.2627-5.0899-0.65688-10.504 0.3374-15.413-1.0734-2e-3 2.5531 2.0131 7.0556-2.553 4.8732-0.71547 4.098 6.3513 4.7245 7.3303 0.35941 6.0638 0.7954 10.467 6.2724 16.379 8.0253 9.7139 4.5119 20.643 0.58303 30.789 2.4232 2.639 5.6682-8.6642 3.5614-12.196 4.1916-9.006 0.1394-18.013 0.2076-27.019 0.31262-9.4939-5.4332-19.464-9.9834-28.989-15.337-4.9233-3.745-9.2412-8.6542-16.161-7.4991-7.0566-0.18531-14.185-0.907-21.212-0.0489 4.1406 3.5103 10.196 5.7988 15.186 8.6184 11.052 5.9289 22.909 10.533 33.139 17.871 3.5697 5.0695 10.777 3.1579 16.118 3.771 48.57 1.0308 97.164 0.25984 145.73 1.6496 5.8811 1.5366-2.9443 4.6838-5.6217 3.4735-53.819 0.50014-107.65-0.52188-161.46 0.3125-7.7525-0.0817-15.611 0.27471-23.301-0.0733-14.99-7.6652-30.17-15.016-44.618-23.668-6.9647-3.3389-14.197-6.2015-20.726-10.349-9.9777-1.8697-20.256-0.9814-30.368-1.2605-89.699 0.34712-179.4 0.31962-269.1 0.58397-14.25 0.23302-28.54-0.0942-42.756 1.0158-2.2597 3.6623 6.5868 7.8864 9.7458 10.701 9.6762 6.378 18.058 14.543 28.249 20.178 4.8545 2.9398 10.042 5.5357 15.336 7.4788 138.34 0.13279 276.68 0.19608 415.02 7e-3 37.91 0.23172 75.828 0.16636 113.73-0.01 7.1492 3.2051-8.6334 7.0355 0.0996 7.6622 2.4495 0.018 5.3036 0.33359 7.4377-1.0716zm18.064-0.94427c-2.6863-1.6682-12.482 1.9668-4.2403 1.3419 1.447-0.25867 3.0095-0.46814 4.2403-1.3419zm56.995 0.357c-8.1094-1.2516-16.607-0.56612-24.868-0.43357-2.8331-0.19379-11.527 0.97335-4.086 1.2688 9.6227 0.12972 19.428 0.53908 28.954-0.83522zm101.2 0.49761c-4.1847-5.1451-3.9343 4.481 0 0zm21.169 0c-1.7177-3.2657-11.733 0.3304-4.4861 1.2198 1.4457-0.0355 3.6562 0.22779 4.4861-1.2198zm9.9619-0.0734c-2.4834-3.3347-3.4324 4.9588 0 0zm16.802 0.0878c-0.15774-2.5043-5.8179 2.7325-0.8815 0.86938zm9.3481-0.0144c-3.074-4.7962-3.1001 4.6905 0 0zm3.9692 0.3946c-6.1508-1.2233 1.2214 2.5904 0 0zm-730.95-1.2452c-6.1508-1.2233 1.2213 2.5904 0 0zm374.89 0.0259c-5.9332-1.0567-2.6781 2.0286 0 0zm84.054-0.0338c-3.607-0.98173-6.6614 0.9845-1.3482 0.55786 0.32257 0.0147 2.9147-0.12858 1.3482-0.55786zm189.25-5e-3c-3.92-1.0048-5.15 1.3455-0.25617 0.55704 0.44657 0.48797 1.457-0.78068 0.25617-0.55704zm-313.84-17.26c-4.4223-3.7398-10.546-4.2093-15.315-7.5244-12.54-6.7572-24.785-14.249-38.038-19.552-7.4054-1.934-15.23-1.8726-22.831-1.5708-3.0916 1.8844 6.0664 3.5153 7.5983 5.261 15.814 7.9756 30.906 17.465 47.289 24.263 7.938 2.8965 16.513 1.7398 24.789 2.1948zm210.83-19.534c6.0208-0.36367 12.911 1.248 18.307-1.803-2.084-4.7662-4.5067-10.026-5.2284-15.484-0.77725-3.6475-0.59463-7.3783-0.62669-11.079-7.824-0.2681-16.227 1.0558-23.364-2.8147-2.8639-1.4894-4.7452-10.915-7.6045-4.4397-2.6466 10.274-4.4147 20.87-8.4957 30.729-5.1002 5.5384 5.929 6.6662 9.5789 5.2739 5.763-0.70425 11.634-0.40733 17.433-0.38299zm46.074-0.21477c-1.3215-4.186-6.8637-3.02-10.392-3.1658 2.0043 1.9573 5.9748 5.8638 9.6769 4.5166l0.52659-0.54149 0.18872-0.80933zm-252.16-3.25c-4.2674-4.3171-1.9237 3.4634 0.20056 0.4835zm174.98-4.3583c3.9546-10.65 5.3544-22.12 9.3855-32.746-1.1322-11.638 2.955-23.628-0.84654-35.051 0.17504-3.7902-3.5728-7.1332-3.5074-1.3164-0.86989 15.402-4.183 30.568-7.3831 45.627-1.8384 7.4593-5.3324 14.53-6.1063 22.251 3.0436 0.66714 6.1917 4.7087 6.5425 6.0812 0.44953-1.6742 0.89112-3.4123 1.9154-4.8445zm79.146-13.075c0.92033-5.9782-0.51029-13.06 1.5449-18.395 5.6398 0.52861 2.0902-9.706 3.1885-13.507-0.56062-7.789-2.3758 2.2168-2.02 4.7702 0.11065 3.4394-2.4694 7.8691-2.4568 1.6042-0.84363-4.7397 1.8306-9.2514 0.16378-13.979 9e-3 -3.4534-1.1224-2.9778-2.8386-0.48796-3.1667 3.5293-6.191 7.378-10.683 9.2194-3.4212 5.1312-10.738 0.87088-13.767 3.9458 4.1197 5.0684 12.36 1.1198 16.953-1.6728 5.8212 0.46283 1.4111 9.8412 2.1424 13.981 1.4248 8.4058-6.7332 2.7298-10.047 0.27578-6.5694-1.7347-1.6509 5.2099 2.0116 4.9767 5.4245 5.9494 1.9864 16.578-5.8067 18.474-2.5692 0.0159-9.2052 2.7464-3.182 3.6671 7.9367 1.6246 16.116 1.334 24.097 0.20152 0.23356-4.3584 0.46714-8.7167 0.70068-13.075zm-172.56 4.4667c26.545-0.36176 53.091-0.63791 79.638-0.731 5.6513-7.8242 6.5594-17.874 8.2988-27.101 2.1188-6.3727-1.98-12.62 0.3102-18.882 3.4398-4.5553 8.0705-9.3184 4.5446-15.719-0.71228-7.1756-7.6254-9.4692-13.811-9.9805-7.7772-1.5294-15.978-0.83709-23.486-3.5866-10.055 1.7023-20.479 1.3324-30.703 1.7839-11.116 0.52708-22.399-0.17663-33.378 1.8915-11.974 3.6286-21.282 14.023-23.822 26.252-2.1048 5.7436-0.92311 14.187-6.8184 17.672-8.1729-1.0316-6.8195 8.4697-6.7222 13.83 1.8562 4.9647-3.5135 12.844 2.2573 15.33 6.0586 0.48279 12.334-0.45562 18.493-0.31965 8.3988-0.18674 16.799-0.32552 25.199-0.44022zm152.13-1.5466c3.9375-2.0101 2.3461-14.484-1.579-8.4766 1.0613 3.5431-0.95638 11.096-5.0743 5.7675-0.57975-2.8854-0.11027-7.51-4.0907-3.401-2.6517 5.0131 7.4865 10.916 10.744 6.1101zm-25.741-16.618c-4.3726-4.643-0.20473 4.9213 0 0zm-179.33-5.0013c-5.3645-3.0904-1.9985 4.857 0 0zm191.8-0.02c1.7511-13.026 1.351-26.265 2.1863-39.379 0.68227-12.503 1.4336-26.528-7.0033-36.832-5.8582-8.2394-16.823-10.256-26.275-8.9202-28.661 2.1921-57.443 3.1532-85.931 7.2132-12.58 2.2236-25.446 0.25653-37.538-3.464-3.8704 1.3966 0.34929 11.3-7.025 10.707-7.3529 2.67-7.977-12.527-1.188-11.067 0.48918 1.9397-2.1659 7.362 0.59207 3.2765 2.7084-2.7338 5.2375-7.8142-0.42206-8.5887-4.7375-3.4502-7.4119-9.2619-12.648-12.018-5.6566-1.9073-12.911-0.11556-11.39 7.2002-1.6217 21.596-0.67063 43.327-2.7926 64.885-1.4299 7.7206-3.0768-2.5821-2.394-5.2749-0.14622-21.093 1.9675-42.222 0.41569-63.291 0.33426-4.3045-3.0636-4.9119-2.7897-0.30393-1.5848 19.788-1.8353 39.675-1.963 59.52 0.34435 6.5269-0.39941 13.413 1.8444 19.64 3.0752 5.3965 1.2192-11.142 5.1669-3.7764-0.52583 4.7198-1.6308 12.661 5.7402 9.7431 7.347-0.46991 4.0335-9.8579 6.6085-14.545 2.816-8.8941 7.6005-17.603 15.663-22.735 6.5186-6.7934 16.195-8.1882 25.143-8.7181 21.522-1.0407 43.107-0.99882 64.637-0.19383 12.356 0.72488 26.341 1.7018 35.4 11.287 6.8499 9.5136 7.4687 22.222 5.0704 33.363-0.52399 7.6359 9.8619 3.7658 14.473 5.0561 4.6246 1.3789 2.095 10.498 9.1368 8.276 2.3998-0.13702 5.1337 0.19934 7.2831-1.06zm-19.326-36.694c1.9887-9.339 8.1391 6.4479 0.49074 2.2617l-0.36279-0.98197zm-163.14-0.66c-1.0123-4.926 0.30069-11.827 3.4661-15.787 3.231 0.33004 6.8207-3.6894 1.6149-3.8811-3.6718 1.4242-8.7302 3.2327-7.3612-3.3716 1.6505-5.7025 5.0947-10.976 4.789-17.155-0.0185-5.0696-0.60806-15.943 7.2025-13.794 2.9673 5.2803 1.2321 11.808 2.6129 17.554 1.2142 6.392 5.7786 12.867 1.9682 19.365-5.1967 4.553-5.4682 10.943-6.851 17.177-1.4126 3.1366-6.0751 2.9817-7.4414-0.1076zm4.9947-7.4457c-3.074-4.7962-3.1001 4.6905 0 0zm5.9565-19.396c-1.5335-4.6213-6.6207-2.9716-3.261 1.3475 0.49466 6.4186 5.7216 2.9279 3.261-1.3475zm-6.8205 1.1661c2.2938-4.3084-7.3174-1.1463-1.8263 0.75267l0.93149-0.14386zm159.63 20.848c-5.2767-2.5756-6.3146-11.383 1.0312-11.18 4.0826-3.2883-3.6241-4.7234-3.6413-8.2851-6.3605 2.074-4.0958-6.6629-7.2722-7.7394-1.716 2.2037 0.21851 12.755-3.505 9.7087-1.0557-5.0456-2.776-16.914 5.7086-14.719 5.7324 0.19687 0.9375 13.947 7.5709 7.6879 4.8894 1.8407 8.3136 8.8756 5.7528 13.9-4.1132 3.519 3.1284 10.548-1.6327 12.69-1.3865-0.58732-2.7096-1.312-4.0122-2.0638zm-9.2463-13.091c-2.0379-4.3396 12.223-4.0097 5.7465 1.2024-1.8725 1.0108-4.4024 0.40751-5.7465-1.2024zm-26.597-5.4857c-4.5301-1.1397-4.9015-12.562-9.5204-5.7917-3.2168 2.0763-6.95 3.0435-10.503 4.3659l-8.4071-8.1434c2.4646-1.531 4.468-5.424 7.6061-4.7294 4.4285 5.1755 11.126 0.57639 16.625 0.56711 5.4821-0.8341 11.411-6.9685 16.259-1.0701 2.8895 1.6165 7.1519 9.1638 0.82704 5.0445-8.0341-1.0714-0.54321 12.551-9.3831 11.013-1.2456-0.13954-2.4374-0.60885-3.5041-1.2558zm15.707 0.28802c-1.9224-6.1551 7.9259-3.44 3.3969 0.79154-1.0679 0.93409-2.9383 0.65248-3.3969-0.79154zm-97.088-4.8762c-2.1916-7.0435 8.9937-6.9728 11.763-2.577-0.94013 3.1757-9.807 6.4439-11.763 2.577zm15.83-0.45061c-2.0417-7.2181 10.197-7.9859 14.732-6.1704-1.2711 5.1229-8.6478 10.785-13.891 7.2619zm20.143 0.90853c-5.7001-6.5093 5.0339-12.742 10.273-8.552 4.1715 7e-3 10.123 7.5028 3.446 8.6304-4.53-0.62132-9.6231 2.3766-13.719-0.0785zm120.08 48.779c6.9924-3.1682 9.2507-11.32 12.161-17.767 5.1969-14.833 5.2625-30.867 4.5827-46.388-0.84337-6.2219-3.7644-12.171-6.6522-17.57-4.0236-4.6177-9.304-9.706-15.986-7.4263-8.6114 1.0319-14.759 9.1261-16.814 17.061-2.0178 5.0231 4.1379 6.238 4.3013 0.86843 3.2502-5.2537 5.472-13.554 12.454-14.677 9.3798-0.18107 16.284 8.9755 17.232 17.678 2.4819 12.449 2.4001 25.235 1.2442 37.807-2.2477 5.7661-4.2194 11.654-6.2503 17.508-2.837 6.4316-9.0718 11.208-16.178 11.642-4.0008 2.2653 5.8404 5.2125 7.8751 2.2165l0.96271-0.44426zm-4.062-8.2776c6.1997-5.5982-2.8449-11.905-8.3074-7.242-3.6277 5.2351 3.5276 10.06 8.3074 7.242zm6.9507-8.5099c-1.661-7.48-4.0346 4.5707-0.0982 0.69673zm-10.002-10.387c3.1832-4.8936 9.6398-9.8274 7.72-17.14-2.6207-4.6665 0.71808-13.691-7.1292-13.926-3.7157-1.0317-13.975-0.43136-7.9968 5.0752 1.1785 2.7225 9.1428 7.5751 4.4679 1.9442-3.5623-2.1211-3.7985-6.7058 1.1934-4.3736 5.1937 3.8825 4.3923 11.513 3.8812 17.26 0.88807 7.5127-9.9437 8.6983-8.1602 15.917 2.4694 4.701 6.445-2.0856 6.0237-4.7571zm14.768-1.5164c0.56325-4.9732 3.9542-12.408-0.26643-16.052-7.3475-1.2696-1.7733 9.3698-5.6484 13.315-0.68816 2.1216-4.7248 10.786-0.28355 5.8041 1.4516 3.1712 4.5503 5.2267 5.2459 0.36672 0.36057-1.1322 0.66361-2.2817 0.95251-3.4339zm-17.612-7.5764c2.5356-3.1595-0.79622-7.9667-2.5114-2.5359-1.7344 2.6844-0.25147 5.5948 2.5114 2.5359zm18.401-14.026c3.6407-2.346-0.2415-5.8517-2.579-2.4544-3.7864-0.66116-5.8503 3.2584-1.157 3.8422 1.4388 0.4813 2.6562-0.65061 3.736-1.3878zm-1.292-11.697c-0.71073-6.2694-3.0056-12.954-7.7159-17.311-5.1036 0.24316-0.9522 9.7333-0.89941 13.531 1.8729 2.9826 1.7577 9.7692 5.1445 10.057 3.1082-0.46028 3.7839-3.6247 3.4708-6.2768zm-16.733-5.1346c0.30362-4.0166-3.4212-9.4575-4.7535-2.648-1.687 2.8716-2.3714 9.5386 2.2824 5.0526 0.8792-0.70545 1.9992-1.3331 2.4711-2.4046zm45.943 612.8c0.87061-6.7698-3.5276-12.524-6.4745-18.231-2.8354-6.0102-7.7836-10.48-11.682-15.641-0.81807-5.2895 8.4595-4.9704 11.553-5.1151 1.6766 6.5457 2.5576 13.381 5.3732 19.631 2.6052 6.4967 4.8178 13.47 4.9541 20.467-0.87666 1.9746-3.7933 0.83308-3.7239-1.1107zm-10.654-141.34c-1.946-3.1326-9.0755-5.03-4.2645-8.5946 0.82132-3.9509 6.1159-10.227 9.6468-8.967-1.5779 6.1404-1.0492 12.556-1.8617 18.802-0.28368 2.3985-2.858-0.63345-3.5206-1.2403z" fill="#30302b"/>
 </g>
</svg>
